G04 #@! TF.GenerationSoftware,KiCad,Pcbnew,7.0.5-7.0.5~ubuntu20.04.1*
G04 #@! TF.CreationDate,2023-07-15T12:39:55+02:00*
G04 #@! TF.ProjectId,omega-dca,6f6d6567-612d-4646-9361-2e6b69636164,rev?*
G04 #@! TF.SameCoordinates,Original*
G04 #@! TF.FileFunction,Copper,L2,Bot*
G04 #@! TF.FilePolarity,Positive*
%FSLAX46Y46*%
G04 Gerber Fmt 4.6, Leading zero omitted, Abs format (unit mm)*
G04 Created by KiCad (PCBNEW 7.0.5-7.0.5~ubuntu20.04.1) date 2023-07-15 12:39:55*
%MOMM*%
%LPD*%
G01*
G04 APERTURE LIST*
G04 Aperture macros list*
%AMRoundRect*
0 Rectangle with rounded corners*
0 $1 Rounding radius*
0 $2 $3 $4 $5 $6 $7 $8 $9 X,Y pos of 4 corners*
0 Add a 4 corners polygon primitive as box body*
4,1,4,$2,$3,$4,$5,$6,$7,$8,$9,$2,$3,0*
0 Add four circle primitives for the rounded corners*
1,1,$1+$1,$2,$3*
1,1,$1+$1,$4,$5*
1,1,$1+$1,$6,$7*
1,1,$1+$1,$8,$9*
0 Add four rect primitives between the rounded corners*
20,1,$1+$1,$2,$3,$4,$5,0*
20,1,$1+$1,$4,$5,$6,$7,0*
20,1,$1+$1,$6,$7,$8,$9,0*
20,1,$1+$1,$8,$9,$2,$3,0*%
G04 Aperture macros list end*
G04 #@! TA.AperFunction,ComponentPad*
%ADD10R,1.524000X1.524000*%
G04 #@! TD*
G04 #@! TA.AperFunction,ComponentPad*
%ADD11C,1.524000*%
G04 #@! TD*
G04 #@! TA.AperFunction,ComponentPad*
%ADD12C,2.000000*%
G04 #@! TD*
G04 #@! TA.AperFunction,ComponentPad*
%ADD13R,1.700000X1.700000*%
G04 #@! TD*
G04 #@! TA.AperFunction,ComponentPad*
%ADD14O,1.700000X1.700000*%
G04 #@! TD*
G04 #@! TA.AperFunction,ComponentPad*
%ADD15RoundRect,0.250000X-0.750000X0.600000X-0.750000X-0.600000X0.750000X-0.600000X0.750000X0.600000X0*%
G04 #@! TD*
G04 #@! TA.AperFunction,ComponentPad*
%ADD16O,2.000000X1.700000*%
G04 #@! TD*
G04 #@! TA.AperFunction,ComponentPad*
%ADD17R,2.540000X2.540000*%
G04 #@! TD*
G04 #@! TA.AperFunction,ComponentPad*
%ADD18C,2.540000*%
G04 #@! TD*
G04 #@! TA.AperFunction,ComponentPad*
%ADD19C,1.600000*%
G04 #@! TD*
G04 #@! TA.AperFunction,ComponentPad*
%ADD20O,1.600000X1.600000*%
G04 #@! TD*
G04 #@! TA.AperFunction,ComponentPad*
%ADD21RoundRect,0.250000X-0.725000X0.600000X-0.725000X-0.600000X0.725000X-0.600000X0.725000X0.600000X0*%
G04 #@! TD*
G04 #@! TA.AperFunction,ComponentPad*
%ADD22O,1.950000X1.700000*%
G04 #@! TD*
G04 #@! TA.AperFunction,ComponentPad*
%ADD23C,4.064000*%
G04 #@! TD*
G04 #@! TA.AperFunction,ComponentPad*
%ADD24RoundRect,0.250000X-0.600000X-0.750000X0.600000X-0.750000X0.600000X0.750000X-0.600000X0.750000X0*%
G04 #@! TD*
G04 #@! TA.AperFunction,ComponentPad*
%ADD25O,1.700000X2.000000*%
G04 #@! TD*
G04 #@! TA.AperFunction,Conductor*
%ADD26C,2.000000*%
G04 #@! TD*
G04 APERTURE END LIST*
D10*
X71628000Y-140716000D03*
D11*
X74168000Y-140716000D03*
X76708000Y-140716000D03*
X79248000Y-140716000D03*
X81788000Y-140716000D03*
X84328000Y-140716000D03*
X86868000Y-140716000D03*
X89408000Y-140716000D03*
D12*
X88860000Y-133858000D03*
X83860000Y-133858000D03*
D11*
X35306000Y-138938000D03*
X37846000Y-138938000D03*
D13*
X56139500Y-110428000D03*
D14*
X51059500Y-110428000D03*
X53599500Y-110428000D03*
X48519500Y-110428000D03*
D15*
X109220000Y-119634000D03*
D16*
X109220000Y-122134000D03*
D17*
X21996140Y-113707680D03*
D18*
X21996140Y-118706400D03*
X21996140Y-123707660D03*
D19*
X28702000Y-139954000D03*
D20*
X21082000Y-139954000D03*
D13*
X88870000Y-107188000D03*
D14*
X88870000Y-109728000D03*
X88870000Y-112268000D03*
X88870000Y-114808000D03*
X88870000Y-117348000D03*
D21*
X109220000Y-108458000D03*
D22*
X109220000Y-110958000D03*
X109220000Y-113458000D03*
D13*
X81031500Y-110428000D03*
D14*
X75951500Y-110428000D03*
X78491500Y-110428000D03*
X73411500Y-110428000D03*
D23*
X18796000Y-107696000D03*
D11*
X66514500Y-134362500D03*
X63974500Y-134362500D03*
X66514500Y-141982500D03*
X63974500Y-141982500D03*
X58679000Y-134362500D03*
X56139000Y-134362500D03*
X58679000Y-141982500D03*
X56139000Y-141982500D03*
D13*
X101082000Y-135890000D03*
D14*
X98542000Y-135890000D03*
X96002000Y-135890000D03*
X93462000Y-135890000D03*
D12*
X80224000Y-133858000D03*
X75224000Y-133858000D03*
D11*
X50551000Y-134362500D03*
X48011000Y-134362500D03*
X50551000Y-141982500D03*
X48011000Y-141982500D03*
D17*
X21996140Y-129580640D03*
D18*
X21996140Y-134579360D03*
D23*
X106426000Y-137160000D03*
D13*
X68585500Y-110428000D03*
D14*
X63505500Y-110428000D03*
X66045500Y-110428000D03*
X60965500Y-110428000D03*
D23*
X18796000Y-144018000D03*
D24*
X108204000Y-129540000D03*
D25*
X110704000Y-129540000D03*
D17*
X40830500Y-110236000D03*
D18*
X37020000Y-110236000D03*
D17*
X37020500Y-130157787D03*
D18*
X33210500Y-130157787D03*
D26*
X101092000Y-136259138D02*
X101092000Y-143256000D01*
X53341500Y-144780000D02*
X40070370Y-144780000D01*
X40070370Y-144780000D02*
X35306000Y-140015630D01*
X35306000Y-140015630D02*
X35306000Y-138938000D01*
X56139000Y-144023000D02*
X56139000Y-141982500D01*
X56896000Y-144780000D02*
X56139000Y-144023000D01*
X101082000Y-135890000D02*
X101082000Y-136249138D01*
X101092000Y-143256000D02*
X99568000Y-144780000D01*
X56139000Y-141982500D02*
X53341500Y-144780000D01*
X101082000Y-136249138D02*
X101092000Y-136259138D01*
X99568000Y-144780000D02*
X56896000Y-144780000D01*
G04 #@! TA.AperFunction,Conductor*
G36*
X50166051Y-142014398D02*
G01*
X50197266Y-142137662D01*
X50266813Y-142244112D01*
X50367157Y-142322213D01*
X50487422Y-142363500D01*
X50529210Y-142363500D01*
X49850395Y-143042313D01*
X49850395Y-143042314D01*
X49913575Y-143086553D01*
X49913574Y-143086553D01*
X49958506Y-143107505D01*
X50011791Y-143154422D01*
X50031252Y-143222699D01*
X50010710Y-143290659D01*
X49956688Y-143336725D01*
X49905256Y-143347700D01*
X48467149Y-143347700D01*
X48399028Y-143327698D01*
X48352535Y-143274042D01*
X48342431Y-143203768D01*
X48371925Y-143139188D01*
X48421632Y-143104209D01*
X48481215Y-143081126D01*
X48545626Y-143056173D01*
X48733810Y-142939655D01*
X48897379Y-142790541D01*
X49030764Y-142613911D01*
X49127720Y-142419196D01*
X49175987Y-142367135D01*
X49244741Y-142349432D01*
X49312152Y-142371711D01*
X49354704Y-142422111D01*
X49446946Y-142619925D01*
X49491184Y-142683103D01*
X49491186Y-142683103D01*
X50166607Y-142007682D01*
X50166051Y-142014398D01*
G37*
G04 #@! TD.AperFunction*
G04 #@! TA.AperFunction,Conductor*
G36*
X58294051Y-142014398D02*
G01*
X58325266Y-142137662D01*
X58394813Y-142244112D01*
X58495157Y-142322213D01*
X58615422Y-142363500D01*
X58657210Y-142363500D01*
X57978395Y-143042313D01*
X57978395Y-143042314D01*
X58041575Y-143086553D01*
X58041574Y-143086553D01*
X58086506Y-143107505D01*
X58139791Y-143154422D01*
X58159252Y-143222699D01*
X58138710Y-143290659D01*
X58084688Y-143336725D01*
X58033256Y-143347700D01*
X57697300Y-143347700D01*
X57629179Y-143327698D01*
X57582686Y-143274042D01*
X57571300Y-143221700D01*
X57571300Y-143042312D01*
X57571300Y-142783176D01*
X57591301Y-142715059D01*
X57608204Y-142694084D01*
X58294607Y-142007681D01*
X58294051Y-142014398D01*
G37*
G04 #@! TD.AperFunction*
G04 #@! TA.AperFunction,Conductor*
G36*
X66129551Y-142014398D02*
G01*
X66160766Y-142137662D01*
X66230313Y-142244112D01*
X66330657Y-142322213D01*
X66450922Y-142363500D01*
X66492710Y-142363500D01*
X65813895Y-143042313D01*
X65813895Y-143042314D01*
X65877075Y-143086553D01*
X65877074Y-143086553D01*
X65922006Y-143107505D01*
X65975291Y-143154422D01*
X65994752Y-143222699D01*
X65974210Y-143290659D01*
X65920188Y-143336725D01*
X65868756Y-143347700D01*
X64430649Y-143347700D01*
X64362528Y-143327698D01*
X64316035Y-143274042D01*
X64305931Y-143203768D01*
X64335425Y-143139188D01*
X64385132Y-143104209D01*
X64444715Y-143081126D01*
X64509126Y-143056173D01*
X64697310Y-142939655D01*
X64860879Y-142790541D01*
X64994264Y-142613911D01*
X65091220Y-142419196D01*
X65139487Y-142367135D01*
X65208241Y-142349432D01*
X65275652Y-142371711D01*
X65318204Y-142422111D01*
X65410446Y-142619925D01*
X65454684Y-142683103D01*
X65454685Y-142683103D01*
X66130107Y-142007681D01*
X66129551Y-142014398D01*
G37*
G04 #@! TD.AperFunction*
G04 #@! TA.AperFunction,Conductor*
G36*
X98082507Y-135680156D02*
G01*
X98042000Y-135818111D01*
X98042000Y-135961889D01*
X98082507Y-136099844D01*
X98110884Y-136144000D01*
X96433116Y-136144000D01*
X96461493Y-136099844D01*
X96502000Y-135961889D01*
X96502000Y-135818111D01*
X96461493Y-135680156D01*
X96433116Y-135636000D01*
X98110884Y-135636000D01*
X98082507Y-135680156D01*
G37*
G04 #@! TD.AperFunction*
G04 #@! TA.AperFunction,Conductor*
G36*
X113987621Y-104922502D02*
G01*
X114034114Y-104976158D01*
X114045500Y-105028500D01*
X114045500Y-146685500D01*
X114025498Y-146753621D01*
X113971842Y-146800114D01*
X113919500Y-146811500D01*
X16128500Y-146811500D01*
X16060379Y-146791498D01*
X16013886Y-146737842D01*
X16002500Y-146685500D01*
X16002500Y-144077941D01*
X16019614Y-144019654D01*
X16234750Y-144019654D01*
X16249396Y-144042443D01*
X16254251Y-144070030D01*
X16271044Y-144336963D01*
X16271046Y-144336979D01*
X16330934Y-144650916D01*
X16330937Y-144650929D01*
X16429693Y-144954873D01*
X16429698Y-144954886D01*
X16565777Y-145244069D01*
X16565785Y-145244083D01*
X16737029Y-145513919D01*
X16829314Y-145625474D01*
X17553732Y-144901056D01*
X17611662Y-144984982D01*
X17782113Y-145162441D01*
X17912664Y-145260544D01*
X17185613Y-145987595D01*
X17185613Y-145987597D01*
X17432307Y-146166831D01*
X17712382Y-146320804D01*
X18009539Y-146438458D01*
X18009557Y-146438463D01*
X18319095Y-146517939D01*
X18319123Y-146517944D01*
X18636182Y-146557998D01*
X18636201Y-146558000D01*
X18955799Y-146558000D01*
X18955817Y-146557998D01*
X19272876Y-146517944D01*
X19272904Y-146517939D01*
X19582442Y-146438463D01*
X19582460Y-146438458D01*
X19879617Y-146320804D01*
X20159692Y-146166831D01*
X20406385Y-145987597D01*
X20406385Y-145987595D01*
X19680568Y-145261777D01*
X19714510Y-145240314D01*
X19898688Y-145077146D01*
X20040575Y-144903365D01*
X20762684Y-145625474D01*
X20762685Y-145625473D01*
X20854963Y-145513930D01*
X21026214Y-145244082D01*
X21026222Y-145244069D01*
X21162301Y-144954886D01*
X21162306Y-144954873D01*
X21261062Y-144650929D01*
X21261065Y-144650916D01*
X21320953Y-144336979D01*
X21320955Y-144336963D01*
X21341022Y-144018006D01*
X21341022Y-144017993D01*
X21320955Y-143699036D01*
X21320953Y-143699020D01*
X21261065Y-143385083D01*
X21261062Y-143385070D01*
X21162306Y-143081126D01*
X21162301Y-143081113D01*
X21026222Y-142791930D01*
X21026214Y-142791916D01*
X20854970Y-142522080D01*
X20762684Y-142410524D01*
X20038266Y-143134941D01*
X19980338Y-143051018D01*
X19809887Y-142873559D01*
X19679333Y-142775454D01*
X20406385Y-142048403D01*
X20406385Y-142048402D01*
X20159692Y-141869168D01*
X19879617Y-141715195D01*
X19582460Y-141597541D01*
X19582442Y-141597536D01*
X19272904Y-141518060D01*
X19272876Y-141518055D01*
X18955817Y-141478001D01*
X18955799Y-141478000D01*
X18636201Y-141478000D01*
X18636182Y-141478001D01*
X18319123Y-141518055D01*
X18319095Y-141518060D01*
X18009557Y-141597536D01*
X18009539Y-141597541D01*
X17712382Y-141715195D01*
X17432306Y-141869168D01*
X17185613Y-142048401D01*
X17185613Y-142048403D01*
X17911431Y-142774222D01*
X17877490Y-142795686D01*
X17693312Y-142958854D01*
X17551424Y-143132634D01*
X16829314Y-142410524D01*
X16737033Y-142522075D01*
X16737030Y-142522078D01*
X16565785Y-142791917D01*
X16565777Y-142791930D01*
X16429698Y-143081113D01*
X16429693Y-143081126D01*
X16330937Y-143385070D01*
X16330934Y-143385083D01*
X16271046Y-143699020D01*
X16271044Y-143699036D01*
X16254251Y-143965969D01*
X16234750Y-144019654D01*
X16019614Y-144019654D01*
X16021274Y-144014000D01*
X16005614Y-143985895D01*
X16002500Y-143958058D01*
X16002500Y-139700000D01*
X19795917Y-139700000D01*
X20770314Y-139700000D01*
X20754359Y-139715955D01*
X20696835Y-139828852D01*
X20677014Y-139954000D01*
X20696835Y-140079148D01*
X20754359Y-140192045D01*
X20770314Y-140208000D01*
X19795918Y-140208000D01*
X19848186Y-140403068D01*
X19848188Y-140403073D01*
X19944912Y-140610498D01*
X20076184Y-140797974D01*
X20076189Y-140797980D01*
X20238019Y-140959810D01*
X20238025Y-140959815D01*
X20425501Y-141091087D01*
X20632926Y-141187811D01*
X20632931Y-141187813D01*
X20828000Y-141240081D01*
X20828000Y-140265686D01*
X20843955Y-140281641D01*
X20956852Y-140339165D01*
X21050519Y-140354000D01*
X21113481Y-140354000D01*
X21207148Y-140339165D01*
X21320045Y-140281641D01*
X21336000Y-140265686D01*
X21336000Y-141240081D01*
X21531068Y-141187813D01*
X21531073Y-141187811D01*
X21738498Y-141091087D01*
X21925974Y-140959815D01*
X21925980Y-140959810D01*
X22087810Y-140797980D01*
X22087815Y-140797974D01*
X22219087Y-140610498D01*
X22315811Y-140403073D01*
X22315813Y-140403068D01*
X22368082Y-140208000D01*
X21393686Y-140208000D01*
X21409641Y-140192045D01*
X21467165Y-140079148D01*
X21486986Y-139954000D01*
X27464993Y-139954000D01*
X27483786Y-140168804D01*
X27490377Y-140193402D01*
X27539593Y-140377078D01*
X27539595Y-140377084D01*
X27630721Y-140572504D01*
X27753506Y-140747860D01*
X27754398Y-140749133D01*
X27906867Y-140901602D01*
X28083496Y-141025279D01*
X28278919Y-141116406D01*
X28487196Y-141172214D01*
X28702000Y-141191007D01*
X28916804Y-141172214D01*
X29125081Y-141116406D01*
X29320504Y-141025279D01*
X29497133Y-140901602D01*
X29649602Y-140749133D01*
X29773279Y-140572504D01*
X29864406Y-140377081D01*
X29920214Y-140168804D01*
X29938811Y-139956239D01*
X33870018Y-139956239D01*
X33872737Y-140021947D01*
X33873477Y-140039856D01*
X33873646Y-140043927D01*
X33873700Y-140046531D01*
X33873700Y-140074881D01*
X33876040Y-140103123D01*
X33876202Y-140105721D01*
X33879827Y-140193392D01*
X33879829Y-140193409D01*
X33885133Y-140218705D01*
X33886259Y-140226435D01*
X33888392Y-140252186D01*
X33909941Y-140337284D01*
X33910528Y-140339821D01*
X33928538Y-140425716D01*
X33937936Y-140449802D01*
X33940320Y-140457244D01*
X33946663Y-140482292D01*
X33946664Y-140482295D01*
X33981925Y-140562683D01*
X33982921Y-140565088D01*
X34013560Y-140643609D01*
X34014824Y-140646847D01*
X34028058Y-140669058D01*
X34031626Y-140675990D01*
X34042012Y-140699666D01*
X34052684Y-140716001D01*
X34090026Y-140773157D01*
X34091395Y-140775351D01*
X34093759Y-140779317D01*
X34136326Y-140850754D01*
X34153030Y-140870478D01*
X34157700Y-140876741D01*
X34171837Y-140898379D01*
X34231286Y-140962958D01*
X34233008Y-140964908D01*
X34247850Y-140982431D01*
X34251321Y-140986529D01*
X34271359Y-141006567D01*
X34273139Y-141008423D01*
X34304334Y-141042309D01*
X34332605Y-141073019D01*
X34332609Y-141073022D01*
X34332611Y-141073024D01*
X34353006Y-141088898D01*
X34358863Y-141094071D01*
X38991938Y-145727146D01*
X38997105Y-145732997D01*
X39012980Y-145753394D01*
X39077576Y-145812859D01*
X39079431Y-145814639D01*
X39099472Y-145834680D01*
X39112293Y-145845539D01*
X39121103Y-145853001D01*
X39123040Y-145854711D01*
X39187618Y-145914160D01*
X39205662Y-145925948D01*
X39209258Y-145928298D01*
X39215522Y-145932969D01*
X39235239Y-145949669D01*
X39310638Y-145994598D01*
X39312847Y-145995977D01*
X39356291Y-146024359D01*
X39386334Y-146043988D01*
X39386341Y-146043991D01*
X39410002Y-146054370D01*
X39416949Y-146057946D01*
X39416956Y-146057950D01*
X39439153Y-146071176D01*
X39516657Y-146101418D01*
X39520942Y-146103090D01*
X39523334Y-146104081D01*
X39581322Y-146129517D01*
X39603711Y-146139338D01*
X39628755Y-146145679D01*
X39636200Y-146148064D01*
X39636203Y-146148065D01*
X39660282Y-146157461D01*
X39724523Y-146170930D01*
X39746211Y-146175478D01*
X39748720Y-146176058D01*
X39833813Y-146197607D01*
X39859578Y-146199741D01*
X39867281Y-146200863D01*
X39892598Y-146206172D01*
X39980337Y-146209799D01*
X39982865Y-146209957D01*
X40011128Y-146212300D01*
X40039469Y-146212300D01*
X40042064Y-146212353D01*
X40087886Y-146214249D01*
X40129759Y-146215981D01*
X40129759Y-146215980D01*
X40129763Y-146215981D01*
X40155417Y-146212783D01*
X40163206Y-146212300D01*
X53248664Y-146212300D01*
X53256452Y-146212783D01*
X53282107Y-146215981D01*
X53369805Y-146212353D01*
X53372401Y-146212300D01*
X53400740Y-146212300D01*
X53400742Y-146212300D01*
X53429000Y-146209957D01*
X53431534Y-146209799D01*
X53519272Y-146206172D01*
X53544570Y-146200867D01*
X53552290Y-146199741D01*
X53578057Y-146197607D01*
X53663158Y-146176055D01*
X53665657Y-146175478D01*
X53681549Y-146172145D01*
X53751588Y-146157461D01*
X53775674Y-146148061D01*
X53783108Y-146145680D01*
X53808161Y-146139337D01*
X53888595Y-146104054D01*
X53890900Y-146103100D01*
X53972717Y-146071176D01*
X53994918Y-146057946D01*
X54001858Y-146054373D01*
X54025536Y-146043988D01*
X54099037Y-145995966D01*
X54101190Y-145994621D01*
X54176628Y-145949671D01*
X54196348Y-145932967D01*
X54202609Y-145928298D01*
X54224252Y-145914160D01*
X54288869Y-145854673D01*
X54290765Y-145853001D01*
X54312399Y-145834679D01*
X54332447Y-145814629D01*
X54334305Y-145812848D01*
X54338552Y-145808937D01*
X54398889Y-145753395D01*
X54414775Y-145732982D01*
X54419923Y-145727153D01*
X55029656Y-145117420D01*
X55091966Y-145083396D01*
X55162781Y-145088461D01*
X55207844Y-145117422D01*
X55817568Y-145727146D01*
X55822735Y-145732997D01*
X55838610Y-145753394D01*
X55903206Y-145812859D01*
X55905061Y-145814639D01*
X55925102Y-145834680D01*
X55937923Y-145845539D01*
X55946733Y-145853001D01*
X55948670Y-145854711D01*
X56013248Y-145914160D01*
X56031292Y-145925948D01*
X56034888Y-145928298D01*
X56041152Y-145932969D01*
X56060869Y-145949669D01*
X56136268Y-145994598D01*
X56138477Y-145995977D01*
X56181921Y-146024359D01*
X56211964Y-146043988D01*
X56211971Y-146043991D01*
X56235632Y-146054370D01*
X56242579Y-146057946D01*
X56242586Y-146057950D01*
X56264783Y-146071176D01*
X56342287Y-146101418D01*
X56346572Y-146103090D01*
X56348964Y-146104081D01*
X56406952Y-146129517D01*
X56429341Y-146139338D01*
X56454385Y-146145679D01*
X56461830Y-146148064D01*
X56461833Y-146148065D01*
X56485912Y-146157461D01*
X56550153Y-146170930D01*
X56571841Y-146175478D01*
X56574350Y-146176058D01*
X56659443Y-146197607D01*
X56685208Y-146199741D01*
X56692911Y-146200863D01*
X56718228Y-146206172D01*
X56805967Y-146209799D01*
X56808495Y-146209957D01*
X56836758Y-146212300D01*
X56865099Y-146212300D01*
X56867694Y-146212353D01*
X56913516Y-146214249D01*
X56955389Y-146215981D01*
X56955389Y-146215980D01*
X56955393Y-146215981D01*
X56981047Y-146212783D01*
X56988836Y-146212300D01*
X99475164Y-146212300D01*
X99482952Y-146212783D01*
X99508607Y-146215981D01*
X99596305Y-146212353D01*
X99598901Y-146212300D01*
X99627240Y-146212300D01*
X99627242Y-146212300D01*
X99655500Y-146209957D01*
X99658034Y-146209799D01*
X99745772Y-146206172D01*
X99771070Y-146200867D01*
X99778790Y-146199741D01*
X99804557Y-146197607D01*
X99889658Y-146176055D01*
X99892157Y-146175478D01*
X99908049Y-146172145D01*
X99978088Y-146157461D01*
X100002174Y-146148061D01*
X100009608Y-146145680D01*
X100034661Y-146139337D01*
X100115095Y-146104054D01*
X100117400Y-146103100D01*
X100199217Y-146071176D01*
X100221418Y-146057946D01*
X100228358Y-146054373D01*
X100252036Y-146043988D01*
X100325537Y-145995966D01*
X100327690Y-145994621D01*
X100403128Y-145949671D01*
X100422848Y-145932967D01*
X100429109Y-145928298D01*
X100450752Y-145914160D01*
X100515369Y-145854673D01*
X100517265Y-145853001D01*
X100538899Y-145834679D01*
X100558947Y-145814629D01*
X100560805Y-145812848D01*
X100565052Y-145808937D01*
X100625389Y-145753395D01*
X100641275Y-145732982D01*
X100646423Y-145727153D01*
X102039153Y-144334423D01*
X102044982Y-144329275D01*
X102065395Y-144313389D01*
X102124848Y-144248805D01*
X102126629Y-144246947D01*
X102146679Y-144226899D01*
X102165010Y-144205254D01*
X102166673Y-144203370D01*
X102226160Y-144138752D01*
X102240308Y-144117095D01*
X102244960Y-144110856D01*
X102261670Y-144091129D01*
X102306619Y-144015692D01*
X102307944Y-144013570D01*
X102355988Y-143940036D01*
X102366377Y-143916350D01*
X102369940Y-143909427D01*
X102383175Y-143887218D01*
X102415090Y-143805425D01*
X102416065Y-143803071D01*
X102451337Y-143722661D01*
X102457680Y-143697608D01*
X102460061Y-143690174D01*
X102469461Y-143666088D01*
X102487485Y-143580124D01*
X102488044Y-143577704D01*
X102509607Y-143492557D01*
X102511742Y-143466788D01*
X102512865Y-143459078D01*
X102518172Y-143433773D01*
X102521801Y-143346018D01*
X102521959Y-143343489D01*
X102524300Y-143315242D01*
X102524300Y-143286902D01*
X102524354Y-143284298D01*
X102527981Y-143196610D01*
X102527981Y-143196608D01*
X102524783Y-143170953D01*
X102524300Y-143163165D01*
X102524300Y-137160006D01*
X103880978Y-137160006D01*
X103901044Y-137478963D01*
X103901046Y-137478979D01*
X103960934Y-137792916D01*
X103960937Y-137792929D01*
X104059693Y-138096873D01*
X104059698Y-138096886D01*
X104195777Y-138386069D01*
X104195785Y-138386083D01*
X104367029Y-138655919D01*
X104459314Y-138767474D01*
X105183732Y-138043056D01*
X105241662Y-138126982D01*
X105412113Y-138304441D01*
X105542664Y-138402544D01*
X104815613Y-139129595D01*
X104815613Y-139129597D01*
X105062307Y-139308831D01*
X105342382Y-139462804D01*
X105639539Y-139580458D01*
X105639557Y-139580463D01*
X105949095Y-139659939D01*
X105949123Y-139659944D01*
X106266182Y-139699998D01*
X106266201Y-139700000D01*
X106585799Y-139700000D01*
X106585817Y-139699998D01*
X106902876Y-139659944D01*
X106902904Y-139659939D01*
X107212442Y-139580463D01*
X107212460Y-139580458D01*
X107509617Y-139462804D01*
X107789692Y-139308831D01*
X108036385Y-139129597D01*
X108036385Y-139129595D01*
X107310568Y-138403777D01*
X107344510Y-138382314D01*
X107528688Y-138219146D01*
X107670575Y-138045365D01*
X108392684Y-138767474D01*
X108392685Y-138767473D01*
X108484963Y-138655930D01*
X108656214Y-138386082D01*
X108656222Y-138386069D01*
X108792301Y-138096886D01*
X108792306Y-138096873D01*
X108891062Y-137792929D01*
X108891065Y-137792916D01*
X108950953Y-137478979D01*
X108950955Y-137478963D01*
X108971022Y-137160006D01*
X108971022Y-137159993D01*
X108950955Y-136841036D01*
X108950953Y-136841020D01*
X108891065Y-136527083D01*
X108891062Y-136527070D01*
X108792306Y-136223126D01*
X108792301Y-136223113D01*
X108656222Y-135933930D01*
X108656214Y-135933916D01*
X108484970Y-135664080D01*
X108392684Y-135552524D01*
X107668266Y-136276941D01*
X107610338Y-136193018D01*
X107439887Y-136015559D01*
X107309334Y-135917454D01*
X108036385Y-135190403D01*
X108036385Y-135190402D01*
X107789692Y-135011168D01*
X107509617Y-134857195D01*
X107212460Y-134739541D01*
X107212442Y-134739536D01*
X106902904Y-134660060D01*
X106902876Y-134660055D01*
X106585817Y-134620001D01*
X106585799Y-134620000D01*
X106266201Y-134620000D01*
X106266182Y-134620001D01*
X105949123Y-134660055D01*
X105949095Y-134660060D01*
X105639557Y-134739536D01*
X105639539Y-134739541D01*
X105342382Y-134857195D01*
X105062306Y-135011168D01*
X104815613Y-135190401D01*
X104815613Y-135190403D01*
X105541432Y-135916222D01*
X105507490Y-135937686D01*
X105323312Y-136100854D01*
X105181424Y-136274634D01*
X104459314Y-135552524D01*
X104367033Y-135664075D01*
X104367030Y-135664078D01*
X104195785Y-135933917D01*
X104195777Y-135933930D01*
X104059698Y-136223113D01*
X104059693Y-136223126D01*
X103960937Y-136527070D01*
X103960934Y-136527083D01*
X103901046Y-136841020D01*
X103901044Y-136841036D01*
X103880978Y-137159993D01*
X103880978Y-137160006D01*
X102524300Y-137160006D01*
X102524300Y-136351973D01*
X102524783Y-136344186D01*
X102527981Y-136318531D01*
X102526335Y-136278745D01*
X102524696Y-136239098D01*
X102524353Y-136230832D01*
X102524300Y-136228235D01*
X102524300Y-136199898D01*
X102524299Y-136199884D01*
X102523730Y-136193018D01*
X102521957Y-136171633D01*
X102521799Y-136169105D01*
X102518172Y-136081366D01*
X102516982Y-136075690D01*
X102514300Y-136049832D01*
X102514300Y-135830764D01*
X102514300Y-135830758D01*
X102499607Y-135653443D01*
X102441337Y-135423339D01*
X102374912Y-135271904D01*
X102364300Y-135221291D01*
X102364300Y-134987933D01*
X102364300Y-134987930D01*
X102361561Y-134958723D01*
X102318520Y-134835718D01*
X102241135Y-134730865D01*
X102136282Y-134653480D01*
X102136279Y-134653479D01*
X102136278Y-134653478D01*
X102013282Y-134610440D01*
X102013278Y-134610439D01*
X101998673Y-134609069D01*
X101984070Y-134607700D01*
X101984069Y-134607700D01*
X101753792Y-134607700D01*
X101693823Y-134592514D01*
X101677857Y-134583874D01*
X101659320Y-134573842D01*
X101659318Y-134573841D01*
X101659317Y-134573840D01*
X101434818Y-134496770D01*
X101434809Y-134496768D01*
X101388255Y-134488999D01*
X101200684Y-134457700D01*
X100963316Y-134457700D01*
X100807043Y-134483776D01*
X100729190Y-134496768D01*
X100729181Y-134496770D01*
X100504682Y-134573840D01*
X100504680Y-134573842D01*
X100470177Y-134592514D01*
X100410208Y-134607700D01*
X100179930Y-134607700D01*
X100150721Y-134610439D01*
X100150717Y-134610440D01*
X100027721Y-134653478D01*
X100027718Y-134653479D01*
X100027718Y-134653480D01*
X99922865Y-134730865D01*
X99890105Y-134775254D01*
X99845478Y-134835721D01*
X99802439Y-134958719D01*
X99801990Y-134960777D01*
X99801240Y-134962147D01*
X99799906Y-134965960D01*
X99799274Y-134965739D01*
X99767909Y-135023059D01*
X99705566Y-135057028D01*
X99634755Y-135051900D01*
X99586191Y-135019221D01*
X99464902Y-134887465D01*
X99287301Y-134749232D01*
X99287300Y-134749231D01*
X99089371Y-134642117D01*
X99089369Y-134642116D01*
X98876512Y-134569043D01*
X98876501Y-134569040D01*
X98796000Y-134555606D01*
X98795999Y-134555607D01*
X98795999Y-135456324D01*
X98684315Y-135405320D01*
X98577763Y-135390000D01*
X98506237Y-135390000D01*
X98399685Y-135405320D01*
X98288000Y-135456325D01*
X98288000Y-134555607D01*
X98287999Y-134555606D01*
X98207498Y-134569040D01*
X98207487Y-134569043D01*
X97994630Y-134642116D01*
X97994628Y-134642117D01*
X97796699Y-134749231D01*
X97796698Y-134749232D01*
X97619097Y-134887465D01*
X97466670Y-135053045D01*
X97377481Y-135189559D01*
X97323478Y-135235647D01*
X97253130Y-135245222D01*
X97188772Y-135215244D01*
X97166516Y-135189558D01*
X97077327Y-135053044D01*
X96924902Y-134887465D01*
X96747301Y-134749232D01*
X96747300Y-134749231D01*
X96549371Y-134642117D01*
X96549369Y-134642116D01*
X96336512Y-134569043D01*
X96336501Y-134569040D01*
X96256000Y-134555606D01*
X96256000Y-135456325D01*
X96144315Y-135405320D01*
X96037763Y-135390000D01*
X95966237Y-135390000D01*
X95859685Y-135405320D01*
X95748000Y-135456325D01*
X95748000Y-134555607D01*
X95747999Y-134555606D01*
X95667498Y-134569040D01*
X95667487Y-134569043D01*
X95454630Y-134642116D01*
X95454628Y-134642117D01*
X95256699Y-134749231D01*
X95256698Y-134749232D01*
X95079097Y-134887465D01*
X94926674Y-135053041D01*
X94803578Y-135241454D01*
X94801101Y-135246032D01*
X94799651Y-135245247D01*
X94758698Y-135293962D01*
X94690883Y-135314979D01*
X94622472Y-135295996D01*
X94581437Y-135250044D01*
X94579497Y-135251165D01*
X94576748Y-135246403D01*
X94448053Y-135062608D01*
X94448048Y-135062602D01*
X94289397Y-134903951D01*
X94289391Y-134903946D01*
X94105599Y-134775254D01*
X93902251Y-134680431D01*
X93902245Y-134680429D01*
X93759260Y-134642116D01*
X93685520Y-134622357D01*
X93462000Y-134602802D01*
X93238480Y-134622357D01*
X93021754Y-134680429D01*
X93021748Y-134680431D01*
X92818400Y-134775254D01*
X92634608Y-134903946D01*
X92634602Y-134903951D01*
X92475951Y-135062602D01*
X92475946Y-135062608D01*
X92347254Y-135246400D01*
X92252431Y-135449748D01*
X92252429Y-135449754D01*
X92194357Y-135666480D01*
X92174802Y-135890000D01*
X92194357Y-136113519D01*
X92252429Y-136330245D01*
X92252431Y-136330251D01*
X92282867Y-136395521D01*
X92347254Y-136533599D01*
X92475949Y-136717395D01*
X92634605Y-136876051D01*
X92818401Y-137004746D01*
X93021752Y-137099570D01*
X93238480Y-137157643D01*
X93462000Y-137177198D01*
X93685520Y-137157643D01*
X93902248Y-137099570D01*
X94105599Y-137004746D01*
X94289395Y-136876051D01*
X94448051Y-136717395D01*
X94576746Y-136533599D01*
X94576746Y-136533598D01*
X94576748Y-136533596D01*
X94579497Y-136528835D01*
X94581608Y-136530053D01*
X94621664Y-136484509D01*
X94689931Y-136465009D01*
X94757902Y-136485513D01*
X94799846Y-136534646D01*
X94801101Y-136533968D01*
X94803578Y-136538545D01*
X94926674Y-136726958D01*
X95079097Y-136892534D01*
X95256698Y-137030767D01*
X95256699Y-137030768D01*
X95454628Y-137137882D01*
X95454630Y-137137883D01*
X95667483Y-137210955D01*
X95667492Y-137210957D01*
X95748000Y-137224391D01*
X95748000Y-136323674D01*
X95859685Y-136374680D01*
X95966237Y-136390000D01*
X96037763Y-136390000D01*
X96144315Y-136374680D01*
X96256000Y-136323674D01*
X96256000Y-137224390D01*
X96336507Y-137210957D01*
X96336516Y-137210955D01*
X96549369Y-137137883D01*
X96549371Y-137137882D01*
X96747300Y-137030768D01*
X96747301Y-137030767D01*
X96924902Y-136892534D01*
X97077327Y-136726955D01*
X97166517Y-136590441D01*
X97220521Y-136544352D01*
X97290868Y-136534777D01*
X97355226Y-136564754D01*
X97377483Y-136590441D01*
X97466672Y-136726955D01*
X97619097Y-136892534D01*
X97796698Y-137030767D01*
X97796699Y-137030768D01*
X97994628Y-137137882D01*
X97994630Y-137137883D01*
X98207483Y-137210955D01*
X98207492Y-137210957D01*
X98288000Y-137224391D01*
X98288000Y-136323674D01*
X98399685Y-136374680D01*
X98506237Y-136390000D01*
X98577763Y-136390000D01*
X98684315Y-136374680D01*
X98795999Y-136323675D01*
X98795999Y-137224390D01*
X98876507Y-137210957D01*
X98876516Y-137210955D01*
X99089369Y-137137883D01*
X99089371Y-137137882D01*
X99287300Y-137030768D01*
X99287301Y-137030767D01*
X99456309Y-136899223D01*
X99522351Y-136873167D01*
X99591997Y-136886952D01*
X99643133Y-136936202D01*
X99659700Y-136998655D01*
X99659700Y-142610532D01*
X99639698Y-142678653D01*
X99622795Y-142699627D01*
X99011627Y-143310795D01*
X98949315Y-143344821D01*
X98922532Y-143347700D01*
X67160244Y-143347700D01*
X67092123Y-143327698D01*
X67045630Y-143274042D01*
X67035526Y-143203768D01*
X67065020Y-143139188D01*
X67106994Y-143107505D01*
X67151925Y-143086553D01*
X67151926Y-143086552D01*
X67215103Y-143042314D01*
X67215103Y-143042312D01*
X66536291Y-142363500D01*
X66546069Y-142363500D01*
X66639921Y-142347839D01*
X66751751Y-142287320D01*
X66837871Y-142193769D01*
X66888948Y-142077323D01*
X66895038Y-142003829D01*
X67574312Y-142683103D01*
X67574314Y-142683103D01*
X67618552Y-142619926D01*
X67618553Y-142619925D01*
X67712466Y-142418527D01*
X67712468Y-142418523D01*
X67769982Y-142203874D01*
X67789350Y-141982500D01*
X67769982Y-141761125D01*
X67712468Y-141546476D01*
X67712466Y-141546472D01*
X67703198Y-141526597D01*
X70358000Y-141526597D01*
X70364505Y-141587093D01*
X70415555Y-141723964D01*
X70415555Y-141723965D01*
X70503095Y-141840904D01*
X70620034Y-141928444D01*
X70756906Y-141979494D01*
X70817402Y-141985999D01*
X70817415Y-141986000D01*
X71374000Y-141986000D01*
X71374000Y-141158470D01*
X71483408Y-141208435D01*
X71591666Y-141224000D01*
X71664334Y-141224000D01*
X71772592Y-141208435D01*
X71882000Y-141158470D01*
X71882000Y-141986000D01*
X72438585Y-141986000D01*
X72438597Y-141985999D01*
X72499093Y-141979494D01*
X72635964Y-141928444D01*
X72635965Y-141928444D01*
X72752904Y-141840904D01*
X72840444Y-141723965D01*
X72840444Y-141723964D01*
X72891494Y-141587093D01*
X72897999Y-141526597D01*
X72898000Y-141526585D01*
X72898000Y-141516050D01*
X72918002Y-141447929D01*
X72971658Y-141401436D01*
X73041932Y-141391332D01*
X73094679Y-141415422D01*
X73108185Y-141416603D01*
X73677193Y-140847595D01*
X73701155Y-140929201D01*
X73780131Y-141052090D01*
X73890530Y-141147752D01*
X74023408Y-141208435D01*
X74033345Y-141209863D01*
X73467395Y-141775813D01*
X73467395Y-141775814D01*
X73530575Y-141820053D01*
X73530574Y-141820053D01*
X73731972Y-141913966D01*
X73731976Y-141913968D01*
X73946625Y-141971482D01*
X74168000Y-141990850D01*
X74389374Y-141971482D01*
X74604023Y-141913968D01*
X74604027Y-141913966D01*
X74805425Y-141820053D01*
X74805426Y-141820052D01*
X74868603Y-141775814D01*
X74868603Y-141775812D01*
X74302654Y-141209863D01*
X74312592Y-141208435D01*
X74445470Y-141147752D01*
X74555869Y-141052090D01*
X74634845Y-140929201D01*
X74658805Y-140847596D01*
X75227812Y-141416603D01*
X75227814Y-141416603D01*
X75272052Y-141353426D01*
X75272053Y-141353425D01*
X75323805Y-141242443D01*
X75370722Y-141189158D01*
X75438999Y-141169697D01*
X75506959Y-141190239D01*
X75552195Y-141242443D01*
X75603946Y-141353425D01*
X75648184Y-141416603D01*
X75648186Y-141416603D01*
X76217193Y-140847596D01*
X76241155Y-140929201D01*
X76320131Y-141052090D01*
X76430530Y-141147752D01*
X76563408Y-141208435D01*
X76573345Y-141209863D01*
X76007395Y-141775813D01*
X76007395Y-141775814D01*
X76070575Y-141820053D01*
X76070574Y-141820053D01*
X76271972Y-141913966D01*
X76271976Y-141913968D01*
X76486625Y-141971482D01*
X76707999Y-141990850D01*
X76929374Y-141971482D01*
X77144023Y-141913968D01*
X77144027Y-141913966D01*
X77345425Y-141820053D01*
X77345426Y-141820052D01*
X77408603Y-141775814D01*
X77408603Y-141775812D01*
X76842654Y-141209863D01*
X76852592Y-141208435D01*
X76985470Y-141147752D01*
X77095869Y-141052090D01*
X77174845Y-140929201D01*
X77198805Y-140847596D01*
X77767812Y-141416603D01*
X77767814Y-141416603D01*
X77812052Y-141353426D01*
X77812053Y-141353425D01*
X77904295Y-141155611D01*
X77951212Y-141102326D01*
X78019489Y-141082865D01*
X78087449Y-141103407D01*
X78131279Y-141152696D01*
X78228236Y-141347411D01*
X78252879Y-141380043D01*
X78361617Y-141524037D01*
X78361620Y-141524039D01*
X78361621Y-141524041D01*
X78525190Y-141673155D01*
X78713374Y-141789673D01*
X78777990Y-141814705D01*
X78919757Y-141869627D01*
X78919760Y-141869627D01*
X78919764Y-141869629D01*
X79137332Y-141910300D01*
X79137336Y-141910300D01*
X79358664Y-141910300D01*
X79358668Y-141910300D01*
X79576236Y-141869629D01*
X79576240Y-141869627D01*
X79576242Y-141869627D01*
X79666341Y-141834722D01*
X79782626Y-141789673D01*
X79970810Y-141673155D01*
X80134379Y-141524041D01*
X80267764Y-141347411D01*
X80366422Y-141149279D01*
X80396810Y-141042476D01*
X80434691Y-140982431D01*
X80499021Y-140952397D01*
X80569378Y-140961910D01*
X80623422Y-141007950D01*
X80639190Y-141042477D01*
X80669576Y-141149274D01*
X80669577Y-141149276D01*
X80669578Y-141149279D01*
X80768236Y-141347411D01*
X80792879Y-141380043D01*
X80901617Y-141524037D01*
X80901620Y-141524039D01*
X80901621Y-141524041D01*
X81065190Y-141673155D01*
X81253374Y-141789673D01*
X81317990Y-141814705D01*
X81459757Y-141869627D01*
X81459760Y-141869627D01*
X81459764Y-141869629D01*
X81677332Y-141910300D01*
X81677336Y-141910300D01*
X81898664Y-141910300D01*
X81898668Y-141910300D01*
X82116236Y-141869629D01*
X82116240Y-141869627D01*
X82116242Y-141869627D01*
X82206341Y-141834722D01*
X82322626Y-141789673D01*
X82510810Y-141673155D01*
X82674379Y-141524041D01*
X82807764Y-141347411D01*
X82906422Y-141149279D01*
X82936810Y-141042476D01*
X82974691Y-140982431D01*
X83039021Y-140952397D01*
X83109378Y-140961910D01*
X83163422Y-141007950D01*
X83179190Y-141042477D01*
X83209576Y-141149274D01*
X83209577Y-141149276D01*
X83209578Y-141149279D01*
X83308236Y-141347411D01*
X83332879Y-141380043D01*
X83441617Y-141524037D01*
X83441620Y-141524039D01*
X83441621Y-141524041D01*
X83605190Y-141673155D01*
X83793374Y-141789673D01*
X83857990Y-141814705D01*
X83999757Y-141869627D01*
X83999760Y-141869627D01*
X83999764Y-141869629D01*
X84217332Y-141910300D01*
X84217336Y-141910300D01*
X84438664Y-141910300D01*
X84438668Y-141910300D01*
X84656236Y-141869629D01*
X84656240Y-141869627D01*
X84656242Y-141869627D01*
X84746341Y-141834722D01*
X84862626Y-141789673D01*
X85050810Y-141673155D01*
X85214379Y-141524041D01*
X85347764Y-141347411D01*
X85446422Y-141149279D01*
X85476810Y-141042476D01*
X85514691Y-140982431D01*
X85579021Y-140952397D01*
X85649378Y-140961910D01*
X85703422Y-141007950D01*
X85719190Y-141042477D01*
X85749576Y-141149274D01*
X85749577Y-141149276D01*
X85749578Y-141149279D01*
X85848236Y-141347411D01*
X85872879Y-141380043D01*
X85981617Y-141524037D01*
X85981620Y-141524039D01*
X85981621Y-141524041D01*
X86145190Y-141673155D01*
X86333374Y-141789673D01*
X86397990Y-141814705D01*
X86539757Y-141869627D01*
X86539760Y-141869627D01*
X86539764Y-141869629D01*
X86757332Y-141910300D01*
X86757336Y-141910300D01*
X86978664Y-141910300D01*
X86978668Y-141910300D01*
X87196236Y-141869629D01*
X87196240Y-141869627D01*
X87196242Y-141869627D01*
X87286341Y-141834722D01*
X87402626Y-141789673D01*
X87590810Y-141673155D01*
X87754379Y-141524041D01*
X87887764Y-141347411D01*
X87986422Y-141149279D01*
X88016810Y-141042476D01*
X88054691Y-140982431D01*
X88119021Y-140952397D01*
X88189378Y-140961910D01*
X88243422Y-141007950D01*
X88259190Y-141042477D01*
X88289576Y-141149274D01*
X88289577Y-141149276D01*
X88289578Y-141149279D01*
X88388236Y-141347411D01*
X88412879Y-141380043D01*
X88521617Y-141524037D01*
X88521620Y-141524039D01*
X88521621Y-141524041D01*
X88685190Y-141673155D01*
X88873374Y-141789673D01*
X88937990Y-141814705D01*
X89079757Y-141869627D01*
X89079760Y-141869627D01*
X89079764Y-141869629D01*
X89297332Y-141910300D01*
X89297336Y-141910300D01*
X89518664Y-141910300D01*
X89518668Y-141910300D01*
X89736236Y-141869629D01*
X89736240Y-141869627D01*
X89736242Y-141869627D01*
X89826341Y-141834722D01*
X89942626Y-141789673D01*
X90130810Y-141673155D01*
X90294379Y-141524041D01*
X90427764Y-141347411D01*
X90526422Y-141149279D01*
X90586994Y-140936392D01*
X90607416Y-140716000D01*
X90586994Y-140495608D01*
X90526422Y-140282721D01*
X90427764Y-140084589D01*
X90369794Y-140007825D01*
X90294382Y-139907962D01*
X90291574Y-139905402D01*
X90130810Y-139758845D01*
X89942626Y-139642327D01*
X89942619Y-139642324D01*
X89736242Y-139562372D01*
X89518668Y-139521700D01*
X89297332Y-139521700D01*
X89297331Y-139521700D01*
X89079757Y-139562372D01*
X88873380Y-139642324D01*
X88873373Y-139642327D01*
X88685191Y-139758844D01*
X88521617Y-139907962D01*
X88388237Y-140084587D01*
X88388236Y-140084588D01*
X88388236Y-140084589D01*
X88379007Y-140103123D01*
X88289576Y-140282725D01*
X88259190Y-140389522D01*
X88221309Y-140449568D01*
X88156978Y-140479603D01*
X88086622Y-140470089D01*
X88032578Y-140424048D01*
X88016810Y-140389522D01*
X87986423Y-140282725D01*
X87986422Y-140282721D01*
X87887764Y-140084589D01*
X87829794Y-140007825D01*
X87754382Y-139907962D01*
X87751574Y-139905402D01*
X87590810Y-139758845D01*
X87402626Y-139642327D01*
X87402619Y-139642324D01*
X87196242Y-139562372D01*
X86978668Y-139521700D01*
X86757332Y-139521700D01*
X86757331Y-139521700D01*
X86539757Y-139562372D01*
X86333380Y-139642324D01*
X86333373Y-139642327D01*
X86145191Y-139758844D01*
X85981617Y-139907962D01*
X85848237Y-140084587D01*
X85848236Y-140084588D01*
X85848236Y-140084589D01*
X85839007Y-140103123D01*
X85749576Y-140282725D01*
X85719190Y-140389522D01*
X85681309Y-140449568D01*
X85616978Y-140479603D01*
X85546622Y-140470089D01*
X85492578Y-140424048D01*
X85476810Y-140389522D01*
X85446423Y-140282725D01*
X85446422Y-140282721D01*
X85347764Y-140084589D01*
X85289794Y-140007825D01*
X85214382Y-139907962D01*
X85211574Y-139905402D01*
X85050810Y-139758845D01*
X84862626Y-139642327D01*
X84862619Y-139642324D01*
X84656242Y-139562372D01*
X84438668Y-139521700D01*
X84217332Y-139521700D01*
X84217331Y-139521700D01*
X83999757Y-139562372D01*
X83793380Y-139642324D01*
X83793373Y-139642327D01*
X83605191Y-139758844D01*
X83441617Y-139907962D01*
X83308237Y-140084587D01*
X83308236Y-140084588D01*
X83308236Y-140084589D01*
X83299007Y-140103123D01*
X83209576Y-140282725D01*
X83179190Y-140389522D01*
X83141309Y-140449568D01*
X83076978Y-140479603D01*
X83006622Y-140470089D01*
X82952578Y-140424048D01*
X82936810Y-140389522D01*
X82906423Y-140282725D01*
X82906422Y-140282721D01*
X82807764Y-140084589D01*
X82749794Y-140007825D01*
X82674382Y-139907962D01*
X82671574Y-139905402D01*
X82510810Y-139758845D01*
X82322626Y-139642327D01*
X82322619Y-139642324D01*
X82116242Y-139562372D01*
X81898668Y-139521700D01*
X81677332Y-139521700D01*
X81677331Y-139521700D01*
X81459757Y-139562372D01*
X81253380Y-139642324D01*
X81253373Y-139642327D01*
X81065191Y-139758844D01*
X80901617Y-139907962D01*
X80768237Y-140084587D01*
X80768236Y-140084588D01*
X80768236Y-140084589D01*
X80759007Y-140103123D01*
X80669576Y-140282725D01*
X80639190Y-140389522D01*
X80601309Y-140449568D01*
X80536978Y-140479603D01*
X80466622Y-140470089D01*
X80412578Y-140424048D01*
X80396810Y-140389522D01*
X80366423Y-140282725D01*
X80366422Y-140282721D01*
X80267764Y-140084589D01*
X80209794Y-140007825D01*
X80134382Y-139907962D01*
X80131574Y-139905402D01*
X79970810Y-139758845D01*
X79782626Y-139642327D01*
X79782619Y-139642324D01*
X79576242Y-139562372D01*
X79358668Y-139521700D01*
X79137332Y-139521700D01*
X79137331Y-139521700D01*
X78919757Y-139562372D01*
X78713380Y-139642324D01*
X78713373Y-139642327D01*
X78525191Y-139758844D01*
X78361617Y-139907962D01*
X78228237Y-140084587D01*
X78228236Y-140084588D01*
X78228236Y-140084589D01*
X78132732Y-140276388D01*
X78131281Y-140279301D01*
X78083011Y-140331365D01*
X78014257Y-140349067D01*
X77946847Y-140326788D01*
X77904295Y-140276388D01*
X77812051Y-140078571D01*
X77767815Y-140015395D01*
X77767813Y-140015395D01*
X77198805Y-140584402D01*
X77174845Y-140502799D01*
X77095869Y-140379910D01*
X76985470Y-140284248D01*
X76852592Y-140223565D01*
X76842653Y-140222136D01*
X77408603Y-139656186D01*
X77408603Y-139656184D01*
X77345425Y-139611946D01*
X77144027Y-139518033D01*
X77144023Y-139518031D01*
X76929374Y-139460517D01*
X76707999Y-139441149D01*
X76486625Y-139460517D01*
X76271976Y-139518031D01*
X76271972Y-139518033D01*
X76070575Y-139611946D01*
X76007394Y-139656184D01*
X76573346Y-140222136D01*
X76563408Y-140223565D01*
X76430530Y-140284248D01*
X76320131Y-140379910D01*
X76241155Y-140502799D01*
X76217193Y-140584403D01*
X75648184Y-140015394D01*
X75603946Y-140078575D01*
X75552195Y-140189556D01*
X75505277Y-140242841D01*
X75437000Y-140262302D01*
X75369040Y-140241760D01*
X75323805Y-140189556D01*
X75272051Y-140078571D01*
X75227815Y-140015395D01*
X75227813Y-140015395D01*
X74658805Y-140584402D01*
X74634845Y-140502799D01*
X74555869Y-140379910D01*
X74445470Y-140284248D01*
X74312592Y-140223565D01*
X74302653Y-140222136D01*
X74868603Y-139656186D01*
X74868603Y-139656184D01*
X74805425Y-139611946D01*
X74604027Y-139518033D01*
X74604023Y-139518031D01*
X74389374Y-139460517D01*
X74167999Y-139441149D01*
X73946625Y-139460517D01*
X73731976Y-139518031D01*
X73731972Y-139518033D01*
X73530575Y-139611946D01*
X73467394Y-139656184D01*
X74033346Y-140222136D01*
X74023408Y-140223565D01*
X73890530Y-140284248D01*
X73780131Y-140379910D01*
X73701155Y-140502799D01*
X73677194Y-140584403D01*
X73108185Y-140015394D01*
X73091374Y-140016865D01*
X73071755Y-140032548D01*
X73001136Y-140039856D01*
X72937775Y-140007825D01*
X72901791Y-139946623D01*
X72898000Y-139915948D01*
X72898000Y-139905414D01*
X72897999Y-139905402D01*
X72891494Y-139844906D01*
X72840444Y-139708035D01*
X72840444Y-139708034D01*
X72752904Y-139591095D01*
X72635965Y-139503555D01*
X72499093Y-139452505D01*
X72438597Y-139446000D01*
X71882000Y-139446000D01*
X71882000Y-140273529D01*
X71772592Y-140223565D01*
X71664334Y-140208000D01*
X71591666Y-140208000D01*
X71483408Y-140223565D01*
X71374000Y-140273529D01*
X71374000Y-139446000D01*
X70817402Y-139446000D01*
X70756906Y-139452505D01*
X70620035Y-139503555D01*
X70620034Y-139503555D01*
X70503095Y-139591095D01*
X70415555Y-139708034D01*
X70415555Y-139708035D01*
X70364505Y-139844906D01*
X70358000Y-139905402D01*
X70358000Y-140462000D01*
X71187375Y-140462000D01*
X71161155Y-140502799D01*
X71120000Y-140642961D01*
X71120000Y-140789039D01*
X71161155Y-140929201D01*
X71187375Y-140970000D01*
X70358000Y-140970000D01*
X70358000Y-141526597D01*
X67703198Y-141526597D01*
X67618551Y-141345071D01*
X67574315Y-141281895D01*
X67574313Y-141281895D01*
X66898892Y-141957316D01*
X66899449Y-141950602D01*
X66868234Y-141827338D01*
X66798687Y-141720888D01*
X66698343Y-141642787D01*
X66578078Y-141601500D01*
X66536290Y-141601500D01*
X67215103Y-140922685D01*
X67215103Y-140922684D01*
X67151925Y-140878446D01*
X66950527Y-140784533D01*
X66950523Y-140784531D01*
X66735874Y-140727017D01*
X66514500Y-140707649D01*
X66293125Y-140727017D01*
X66078476Y-140784531D01*
X66078472Y-140784533D01*
X65877075Y-140878446D01*
X65813894Y-140922685D01*
X66492709Y-141601500D01*
X66482931Y-141601500D01*
X66389079Y-141617161D01*
X66277249Y-141677680D01*
X66191129Y-141771231D01*
X66140052Y-141887677D01*
X66133961Y-141961170D01*
X65454685Y-141281894D01*
X65410446Y-141345075D01*
X65318204Y-141542888D01*
X65271286Y-141596173D01*
X65203009Y-141615634D01*
X65135049Y-141595092D01*
X65091220Y-141545803D01*
X64994264Y-141351089D01*
X64933050Y-141270029D01*
X64860882Y-141174462D01*
X64840204Y-141155611D01*
X64697310Y-141025345D01*
X64509126Y-140908827D01*
X64509119Y-140908824D01*
X64302742Y-140828872D01*
X64085168Y-140788200D01*
X63863832Y-140788200D01*
X63863831Y-140788200D01*
X63646257Y-140828872D01*
X63439880Y-140908824D01*
X63439873Y-140908827D01*
X63251691Y-141025344D01*
X63088117Y-141174462D01*
X62954737Y-141351087D01*
X62856076Y-141549225D01*
X62795506Y-141762106D01*
X62775084Y-141982500D01*
X62795506Y-142202893D01*
X62856076Y-142415774D01*
X62856077Y-142415776D01*
X62856078Y-142415779D01*
X62954736Y-142613911D01*
X62981412Y-142649237D01*
X63088117Y-142790537D01*
X63088120Y-142790539D01*
X63088121Y-142790541D01*
X63251690Y-142939655D01*
X63439874Y-143056173D01*
X63494234Y-143077232D01*
X63563868Y-143104209D01*
X63620163Y-143147468D01*
X63644133Y-143214296D01*
X63628169Y-143283474D01*
X63577338Y-143333040D01*
X63518351Y-143347700D01*
X59324744Y-143347700D01*
X59256623Y-143327698D01*
X59210130Y-143274042D01*
X59200026Y-143203768D01*
X59229520Y-143139188D01*
X59271494Y-143107505D01*
X59316425Y-143086553D01*
X59316426Y-143086552D01*
X59379603Y-143042314D01*
X59379603Y-143042312D01*
X58700791Y-142363500D01*
X58710569Y-142363500D01*
X58804421Y-142347839D01*
X58916251Y-142287320D01*
X59002371Y-142193769D01*
X59053448Y-142077323D01*
X59059538Y-142003829D01*
X59738812Y-142683103D01*
X59738814Y-142683103D01*
X59783052Y-142619926D01*
X59783053Y-142619925D01*
X59876966Y-142418527D01*
X59876968Y-142418523D01*
X59934482Y-142203874D01*
X59953850Y-141982500D01*
X59934482Y-141761125D01*
X59876968Y-141546476D01*
X59876966Y-141546472D01*
X59783051Y-141345071D01*
X59738815Y-141281895D01*
X59738813Y-141281895D01*
X59063392Y-141957316D01*
X59063949Y-141950602D01*
X59032734Y-141827338D01*
X58963187Y-141720888D01*
X58862843Y-141642787D01*
X58742578Y-141601500D01*
X58700790Y-141601500D01*
X59379603Y-140922685D01*
X59379603Y-140922684D01*
X59316425Y-140878446D01*
X59115027Y-140784533D01*
X59115023Y-140784531D01*
X58900374Y-140727017D01*
X58678999Y-140707649D01*
X58457625Y-140727017D01*
X58242976Y-140784531D01*
X58242972Y-140784533D01*
X58041575Y-140878446D01*
X57978394Y-140922685D01*
X58657209Y-141601500D01*
X58647431Y-141601500D01*
X58553579Y-141617161D01*
X58441749Y-141677680D01*
X58355629Y-141771231D01*
X58304552Y-141887677D01*
X58298461Y-141961170D01*
X57619185Y-141281894D01*
X57619184Y-141281894D01*
X57608570Y-141297054D01*
X57553113Y-141341382D01*
X57482494Y-141348691D01*
X57419133Y-141316660D01*
X57399875Y-141293700D01*
X57388846Y-141276819D01*
X57384989Y-141270029D01*
X57373642Y-141246817D01*
X57373638Y-141246811D01*
X57357351Y-141224000D01*
X57322628Y-141175368D01*
X57321194Y-141173271D01*
X57273160Y-141099748D01*
X57255646Y-141080723D01*
X57250723Y-141074660D01*
X57235714Y-141053638D01*
X57235713Y-141053637D01*
X57235711Y-141053634D01*
X57173649Y-140991572D01*
X57171870Y-140989717D01*
X57112400Y-140925116D01*
X57112396Y-140925112D01*
X57109278Y-140922685D01*
X57091987Y-140909226D01*
X57086142Y-140904065D01*
X57067866Y-140885789D01*
X57067863Y-140885786D01*
X57067855Y-140885780D01*
X56996427Y-140834782D01*
X56994369Y-140833248D01*
X56925079Y-140779317D01*
X56925077Y-140779316D01*
X56925076Y-140779315D01*
X56902350Y-140767016D01*
X56895723Y-140762879D01*
X56882965Y-140753771D01*
X56874686Y-140747860D01*
X56832052Y-140727017D01*
X56795827Y-140709307D01*
X56793524Y-140708122D01*
X56716320Y-140666342D01*
X56716317Y-140666341D01*
X56716316Y-140666340D01*
X56691870Y-140657948D01*
X56684653Y-140654958D01*
X56661441Y-140643611D01*
X56661435Y-140643608D01*
X56577322Y-140618566D01*
X56574843Y-140617772D01*
X56491819Y-140589270D01*
X56491814Y-140589269D01*
X56466314Y-140585013D01*
X56458706Y-140583253D01*
X56445628Y-140579360D01*
X56433937Y-140575880D01*
X56433934Y-140575879D01*
X56433932Y-140575879D01*
X56433931Y-140575878D01*
X56346863Y-140565025D01*
X56344288Y-140564650D01*
X56278085Y-140553604D01*
X56257684Y-140550200D01*
X56257682Y-140550200D01*
X56231835Y-140550200D01*
X56224044Y-140549716D01*
X56207793Y-140547690D01*
X56198387Y-140546518D01*
X56122138Y-140549672D01*
X56110693Y-140550146D01*
X56108098Y-140550200D01*
X56020315Y-140550200D01*
X55994817Y-140554454D01*
X55987047Y-140555259D01*
X55985208Y-140555335D01*
X55961234Y-140556327D01*
X55961217Y-140556329D01*
X55895240Y-140570163D01*
X55875302Y-140574343D01*
X55872759Y-140574822D01*
X55786180Y-140589270D01*
X55761739Y-140597660D01*
X55754212Y-140599732D01*
X55728918Y-140605037D01*
X55728910Y-140605039D01*
X55647147Y-140636943D01*
X55644703Y-140637839D01*
X55561681Y-140666341D01*
X55561677Y-140666342D01*
X55538942Y-140678646D01*
X55531857Y-140681930D01*
X55507782Y-140691325D01*
X55432375Y-140736256D01*
X55430138Y-140737527D01*
X55352921Y-140779316D01*
X55332517Y-140795196D01*
X55326070Y-140799601D01*
X55303875Y-140812827D01*
X55303868Y-140812832D01*
X55236890Y-140869559D01*
X55234869Y-140871200D01*
X55165607Y-140925109D01*
X55165605Y-140925110D01*
X55165605Y-140925111D01*
X55161840Y-140929201D01*
X55106150Y-140989694D01*
X55104348Y-140991573D01*
X52785127Y-143310795D01*
X52722815Y-143344820D01*
X52696032Y-143347700D01*
X51196744Y-143347700D01*
X51128623Y-143327698D01*
X51082130Y-143274042D01*
X51072026Y-143203768D01*
X51101520Y-143139188D01*
X51143494Y-143107505D01*
X51188425Y-143086553D01*
X51188426Y-143086552D01*
X51251603Y-143042314D01*
X51251603Y-143042312D01*
X50572791Y-142363500D01*
X50582569Y-142363500D01*
X50676421Y-142347839D01*
X50788251Y-142287320D01*
X50874371Y-142193769D01*
X50925448Y-142077323D01*
X50931538Y-142003828D01*
X51610813Y-142683103D01*
X51610814Y-142683103D01*
X51655052Y-142619926D01*
X51655053Y-142619925D01*
X51748966Y-142418527D01*
X51748968Y-142418523D01*
X51806482Y-142203874D01*
X51825850Y-141982500D01*
X51806482Y-141761125D01*
X51748968Y-141546476D01*
X51748966Y-141546472D01*
X51655051Y-141345071D01*
X51610815Y-141281895D01*
X51610812Y-141281895D01*
X50935392Y-141957315D01*
X50935949Y-141950602D01*
X50904734Y-141827338D01*
X50835187Y-141720888D01*
X50734843Y-141642787D01*
X50614578Y-141601500D01*
X50572790Y-141601500D01*
X51251603Y-140922685D01*
X51251603Y-140922684D01*
X51188425Y-140878446D01*
X50987027Y-140784533D01*
X50987023Y-140784531D01*
X50772374Y-140727017D01*
X50551000Y-140707649D01*
X50329625Y-140727017D01*
X50114976Y-140784531D01*
X50114972Y-140784533D01*
X49913575Y-140878446D01*
X49850394Y-140922685D01*
X50529209Y-141601500D01*
X50519431Y-141601500D01*
X50425579Y-141617161D01*
X50313749Y-141677680D01*
X50227629Y-141771231D01*
X50176552Y-141887677D01*
X50170461Y-141961171D01*
X49491184Y-141281894D01*
X49446946Y-141345075D01*
X49354704Y-141542888D01*
X49307786Y-141596173D01*
X49239509Y-141615634D01*
X49171549Y-141595092D01*
X49127720Y-141545803D01*
X49030764Y-141351089D01*
X48969550Y-141270029D01*
X48897382Y-141174462D01*
X48876704Y-141155611D01*
X48733810Y-141025345D01*
X48545626Y-140908827D01*
X48545619Y-140908824D01*
X48339242Y-140828872D01*
X48121668Y-140788200D01*
X47900332Y-140788200D01*
X47900331Y-140788200D01*
X47682757Y-140828872D01*
X47476380Y-140908824D01*
X47476373Y-140908827D01*
X47288191Y-141025344D01*
X47124617Y-141174462D01*
X46991237Y-141351087D01*
X46892576Y-141549225D01*
X46832006Y-141762106D01*
X46811584Y-141982500D01*
X46832006Y-142202893D01*
X46892576Y-142415774D01*
X46892577Y-142415776D01*
X46892578Y-142415779D01*
X46991236Y-142613911D01*
X47017912Y-142649237D01*
X47124617Y-142790537D01*
X47124620Y-142790539D01*
X47124621Y-142790541D01*
X47288190Y-142939655D01*
X47476374Y-143056173D01*
X47530734Y-143077232D01*
X47600368Y-143104209D01*
X47656663Y-143147468D01*
X47680633Y-143214296D01*
X47664669Y-143283474D01*
X47613838Y-143333040D01*
X47554851Y-143347700D01*
X40715838Y-143347700D01*
X40647717Y-143327698D01*
X40626743Y-143310795D01*
X37663343Y-140347395D01*
X37629317Y-140285083D01*
X37634382Y-140214268D01*
X37676929Y-140157432D01*
X37743449Y-140132621D01*
X37752438Y-140132300D01*
X37956664Y-140132300D01*
X37956668Y-140132300D01*
X38174236Y-140091629D01*
X38174240Y-140091627D01*
X38174242Y-140091627D01*
X38293987Y-140045237D01*
X38380626Y-140011673D01*
X38568810Y-139895155D01*
X38732379Y-139746041D01*
X38865764Y-139569411D01*
X38964422Y-139371279D01*
X39024994Y-139158392D01*
X39045416Y-138938000D01*
X39024994Y-138717608D01*
X38964422Y-138504721D01*
X38865764Y-138306589D01*
X38799730Y-138219146D01*
X38732382Y-138129962D01*
X38696100Y-138096886D01*
X38568810Y-137980845D01*
X38380626Y-137864327D01*
X38380619Y-137864324D01*
X38174242Y-137784372D01*
X37956668Y-137743700D01*
X37735332Y-137743700D01*
X37735331Y-137743700D01*
X37517757Y-137784372D01*
X37311380Y-137864324D01*
X37311373Y-137864327D01*
X37123191Y-137980844D01*
X36959617Y-138129962D01*
X36826236Y-138306588D01*
X36826233Y-138306593D01*
X36822286Y-138314519D01*
X36774013Y-138366580D01*
X36705258Y-138384278D01*
X36637849Y-138361994D01*
X36594112Y-138308963D01*
X36569988Y-138253964D01*
X36524980Y-138185075D01*
X36440160Y-138055247D01*
X36279401Y-137880616D01*
X36092081Y-137734818D01*
X36031764Y-137702176D01*
X35883320Y-137621842D01*
X35883316Y-137621840D01*
X35883315Y-137621840D01*
X35658818Y-137544770D01*
X35658809Y-137544768D01*
X35612255Y-137536999D01*
X35424684Y-137505700D01*
X35187316Y-137505700D01*
X35031044Y-137531776D01*
X34953190Y-137544768D01*
X34953181Y-137544770D01*
X34728684Y-137621840D01*
X34519918Y-137734818D01*
X34332598Y-137880616D01*
X34171839Y-138055247D01*
X34042013Y-138253961D01*
X33946662Y-138471341D01*
X33946661Y-138471342D01*
X33888394Y-138701435D01*
X33888393Y-138701441D01*
X33888393Y-138701443D01*
X33880923Y-138791593D01*
X33873700Y-138878756D01*
X33873700Y-139922793D01*
X33873216Y-139930583D01*
X33870298Y-139953999D01*
X33870019Y-139956237D01*
X33870018Y-139956239D01*
X29938811Y-139956239D01*
X29939007Y-139954000D01*
X29920214Y-139739196D01*
X29864406Y-139530919D01*
X29773279Y-139335497D01*
X29773278Y-139335496D01*
X29773277Y-139335493D01*
X29649606Y-139158871D01*
X29649603Y-139158868D01*
X29600754Y-139110019D01*
X29497133Y-139006398D01*
X29320504Y-138882721D01*
X29179376Y-138816912D01*
X29125084Y-138791595D01*
X29125078Y-138791593D01*
X29035061Y-138767473D01*
X28916804Y-138735786D01*
X28702000Y-138716993D01*
X28487196Y-138735786D01*
X28278921Y-138791593D01*
X28278916Y-138791595D01*
X28083493Y-138882722D01*
X27906871Y-139006393D01*
X27906861Y-139006402D01*
X27754402Y-139158861D01*
X27754393Y-139158871D01*
X27630722Y-139335493D01*
X27539595Y-139530916D01*
X27539593Y-139530921D01*
X27483786Y-139739196D01*
X27474538Y-139844906D01*
X27464993Y-139954000D01*
X21486986Y-139954000D01*
X21467165Y-139828852D01*
X21409641Y-139715955D01*
X21393686Y-139700000D01*
X22368082Y-139700000D01*
X22315813Y-139504931D01*
X22315811Y-139504926D01*
X22219087Y-139297501D01*
X22087815Y-139110025D01*
X22087810Y-139110019D01*
X21925980Y-138948189D01*
X21925974Y-138948184D01*
X21738498Y-138816912D01*
X21531073Y-138720188D01*
X21531071Y-138720187D01*
X21336000Y-138667917D01*
X21336000Y-139642314D01*
X21320045Y-139626359D01*
X21207148Y-139568835D01*
X21113481Y-139554000D01*
X21050519Y-139554000D01*
X20956852Y-139568835D01*
X20843955Y-139626359D01*
X20828000Y-139642314D01*
X20828000Y-138667917D01*
X20827999Y-138667917D01*
X20632928Y-138720187D01*
X20632926Y-138720188D01*
X20425501Y-138816912D01*
X20238025Y-138948184D01*
X20238019Y-138948189D01*
X20076189Y-139110019D01*
X20076184Y-139110025D01*
X19944912Y-139297501D01*
X19848188Y-139504926D01*
X19848186Y-139504931D01*
X19795917Y-139700000D01*
X16002500Y-139700000D01*
X16002500Y-134579360D01*
X20213154Y-134579360D01*
X20233068Y-134845103D01*
X20292367Y-135104905D01*
X20292368Y-135104907D01*
X20389721Y-135352962D01*
X20389723Y-135352966D01*
X20522965Y-135583748D01*
X20571580Y-135644709D01*
X21432138Y-134784151D01*
X21472530Y-134881666D01*
X21568614Y-135006886D01*
X21693834Y-135102970D01*
X21791347Y-135143361D01*
X20930184Y-136004523D01*
X20930184Y-136004525D01*
X21104637Y-136123465D01*
X21104644Y-136123469D01*
X21344738Y-136239093D01*
X21344750Y-136239098D01*
X21599377Y-136317640D01*
X21599389Y-136317642D01*
X21862901Y-136357360D01*
X22129379Y-136357360D01*
X22392890Y-136317642D01*
X22392902Y-136317640D01*
X22647529Y-136239098D01*
X22647541Y-136239093D01*
X22887635Y-136123469D01*
X22887642Y-136123465D01*
X23062094Y-136004525D01*
X23062094Y-136004523D01*
X22200932Y-135143361D01*
X22298446Y-135102970D01*
X22423666Y-135006886D01*
X22519750Y-134881667D01*
X22560141Y-134784152D01*
X23420698Y-135644709D01*
X23469313Y-135583749D01*
X23469315Y-135583746D01*
X23602556Y-135352966D01*
X23602558Y-135352962D01*
X23699911Y-135104907D01*
X23699912Y-135104905D01*
X23759211Y-134845103D01*
X23779125Y-134579360D01*
X23762874Y-134362500D01*
X46811584Y-134362500D01*
X46832006Y-134582893D01*
X46892576Y-134795774D01*
X46892577Y-134795776D01*
X46892578Y-134795779D01*
X46991236Y-134993911D01*
X47001034Y-135006886D01*
X47124617Y-135170537D01*
X47124620Y-135170539D01*
X47124621Y-135170541D01*
X47288190Y-135319655D01*
X47476374Y-135436173D01*
X47511431Y-135449754D01*
X47682757Y-135516127D01*
X47682760Y-135516127D01*
X47682764Y-135516129D01*
X47900332Y-135556800D01*
X47900336Y-135556800D01*
X48121664Y-135556800D01*
X48121668Y-135556800D01*
X48339236Y-135516129D01*
X48339240Y-135516127D01*
X48339242Y-135516127D01*
X48403852Y-135491096D01*
X48545626Y-135436173D01*
X48733810Y-135319655D01*
X48897379Y-135170541D01*
X49030764Y-134993911D01*
X49127720Y-134799196D01*
X49175987Y-134747135D01*
X49244741Y-134729432D01*
X49312152Y-134751711D01*
X49354704Y-134802111D01*
X49446946Y-134999925D01*
X49491184Y-135063103D01*
X49491185Y-135063103D01*
X50166607Y-134387681D01*
X50166051Y-134394398D01*
X50197266Y-134517662D01*
X50266813Y-134624112D01*
X50367157Y-134702213D01*
X50487422Y-134743500D01*
X50529210Y-134743500D01*
X49850395Y-135422313D01*
X49850395Y-135422314D01*
X49913575Y-135466553D01*
X49913574Y-135466553D01*
X50114972Y-135560466D01*
X50114976Y-135560468D01*
X50329625Y-135617982D01*
X50551000Y-135637350D01*
X50772374Y-135617982D01*
X50987023Y-135560468D01*
X50987027Y-135560466D01*
X51188425Y-135466553D01*
X51188426Y-135466552D01*
X51251603Y-135422314D01*
X51251603Y-135422312D01*
X50572791Y-134743500D01*
X50582569Y-134743500D01*
X50676421Y-134727839D01*
X50788251Y-134667320D01*
X50874371Y-134573769D01*
X50925448Y-134457323D01*
X50931538Y-134383829D01*
X51610812Y-135063103D01*
X51610814Y-135063103D01*
X51655052Y-134999926D01*
X51655053Y-134999925D01*
X51748966Y-134798527D01*
X51748968Y-134798523D01*
X51806482Y-134583874D01*
X51825850Y-134362500D01*
X54939584Y-134362500D01*
X54960006Y-134582893D01*
X55020576Y-134795774D01*
X55020577Y-134795776D01*
X55020578Y-134795779D01*
X55119236Y-134993911D01*
X55129034Y-135006886D01*
X55252617Y-135170537D01*
X55252620Y-135170539D01*
X55252621Y-135170541D01*
X55416190Y-135319655D01*
X55604374Y-135436173D01*
X55639431Y-135449754D01*
X55810757Y-135516127D01*
X55810760Y-135516127D01*
X55810764Y-135516129D01*
X56028332Y-135556800D01*
X56028336Y-135556800D01*
X56249664Y-135556800D01*
X56249668Y-135556800D01*
X56467236Y-135516129D01*
X56467240Y-135516127D01*
X56467242Y-135516127D01*
X56531852Y-135491096D01*
X56673626Y-135436173D01*
X56861810Y-135319655D01*
X57025379Y-135170541D01*
X57158764Y-134993911D01*
X57255720Y-134799196D01*
X57303987Y-134747135D01*
X57372741Y-134729432D01*
X57440152Y-134751711D01*
X57482704Y-134802111D01*
X57574946Y-134999925D01*
X57619184Y-135063103D01*
X57619185Y-135063103D01*
X58294607Y-134387680D01*
X58294051Y-134394398D01*
X58325266Y-134517662D01*
X58394813Y-134624112D01*
X58495157Y-134702213D01*
X58615422Y-134743500D01*
X58657210Y-134743500D01*
X57978395Y-135422313D01*
X57978395Y-135422314D01*
X58041575Y-135466553D01*
X58041574Y-135466553D01*
X58242972Y-135560466D01*
X58242976Y-135560468D01*
X58457625Y-135617982D01*
X58679000Y-135637350D01*
X58900374Y-135617982D01*
X59115023Y-135560468D01*
X59115027Y-135560466D01*
X59316425Y-135466553D01*
X59316426Y-135466552D01*
X59379603Y-135422314D01*
X59379603Y-135422312D01*
X58700791Y-134743500D01*
X58710569Y-134743500D01*
X58804421Y-134727839D01*
X58916251Y-134667320D01*
X59002371Y-134573769D01*
X59053448Y-134457323D01*
X59059538Y-134383829D01*
X59738812Y-135063103D01*
X59738814Y-135063103D01*
X59783052Y-134999926D01*
X59783053Y-134999925D01*
X59876966Y-134798527D01*
X59876968Y-134798523D01*
X59934482Y-134583874D01*
X59953850Y-134362500D01*
X62775084Y-134362500D01*
X62795506Y-134582893D01*
X62856076Y-134795774D01*
X62856077Y-134795776D01*
X62856078Y-134795779D01*
X62954736Y-134993911D01*
X62964534Y-135006886D01*
X63088117Y-135170537D01*
X63088120Y-135170539D01*
X63088121Y-135170541D01*
X63251690Y-135319655D01*
X63439874Y-135436173D01*
X63474931Y-135449754D01*
X63646257Y-135516127D01*
X63646260Y-135516127D01*
X63646264Y-135516129D01*
X63863832Y-135556800D01*
X63863836Y-135556800D01*
X64085164Y-135556800D01*
X64085168Y-135556800D01*
X64302736Y-135516129D01*
X64302740Y-135516127D01*
X64302742Y-135516127D01*
X64367352Y-135491096D01*
X64509126Y-135436173D01*
X64697310Y-135319655D01*
X64860879Y-135170541D01*
X64994264Y-134993911D01*
X65091220Y-134799196D01*
X65139487Y-134747135D01*
X65208241Y-134729432D01*
X65275652Y-134751711D01*
X65318204Y-134802111D01*
X65410446Y-134999925D01*
X65454684Y-135063103D01*
X65454685Y-135063103D01*
X66130107Y-134387681D01*
X66129551Y-134394398D01*
X66160766Y-134517662D01*
X66230313Y-134624112D01*
X66330657Y-134702213D01*
X66450922Y-134743500D01*
X66492710Y-134743500D01*
X65813895Y-135422313D01*
X65813895Y-135422314D01*
X65877075Y-135466553D01*
X65877074Y-135466553D01*
X66078472Y-135560466D01*
X66078476Y-135560468D01*
X66293125Y-135617982D01*
X66514499Y-135637350D01*
X66735874Y-135617982D01*
X66950523Y-135560468D01*
X66950527Y-135560466D01*
X67151925Y-135466553D01*
X67151926Y-135466552D01*
X67215103Y-135422314D01*
X67215103Y-135422312D01*
X66536291Y-134743500D01*
X66546069Y-134743500D01*
X66639921Y-134727839D01*
X66751751Y-134667320D01*
X66837871Y-134573769D01*
X66888948Y-134457323D01*
X66895038Y-134383829D01*
X67574312Y-135063103D01*
X67574314Y-135063103D01*
X67618552Y-134999926D01*
X67618553Y-134999925D01*
X67712466Y-134798527D01*
X67712468Y-134798523D01*
X67769982Y-134583874D01*
X67789350Y-134362500D01*
X67769982Y-134141125D01*
X67712468Y-133926476D01*
X67712466Y-133926472D01*
X67680537Y-133858000D01*
X73786791Y-133858000D01*
X73803337Y-134057680D01*
X73806394Y-134094564D01*
X73864661Y-134324657D01*
X73864662Y-134324658D01*
X73864663Y-134324661D01*
X73922854Y-134457323D01*
X73960013Y-134542038D01*
X74089839Y-134740752D01*
X74250598Y-134915383D01*
X74250603Y-134915387D01*
X74250605Y-134915389D01*
X74351489Y-134993910D01*
X74432582Y-135057028D01*
X74437921Y-135061183D01*
X74646680Y-135174158D01*
X74871186Y-135251231D01*
X75105316Y-135290300D01*
X75105320Y-135290300D01*
X75342680Y-135290300D01*
X75342684Y-135290300D01*
X75576814Y-135251231D01*
X75801320Y-135174158D01*
X76010079Y-135061183D01*
X76197395Y-134915389D01*
X76207925Y-134903951D01*
X76358160Y-134740752D01*
X76361366Y-134735845D01*
X76487988Y-134542036D01*
X76583337Y-134324661D01*
X76641607Y-134094557D01*
X76661209Y-133858000D01*
X78786791Y-133858000D01*
X78803337Y-134057680D01*
X78806394Y-134094564D01*
X78864661Y-134324657D01*
X78864662Y-134324658D01*
X78864663Y-134324661D01*
X78922854Y-134457323D01*
X78960013Y-134542038D01*
X79089839Y-134740752D01*
X79250598Y-134915383D01*
X79250603Y-134915387D01*
X79250605Y-134915389D01*
X79351489Y-134993910D01*
X79432582Y-135057028D01*
X79437921Y-135061183D01*
X79646680Y-135174158D01*
X79871186Y-135251231D01*
X80105316Y-135290300D01*
X80105320Y-135290300D01*
X80342680Y-135290300D01*
X80342684Y-135290300D01*
X80576814Y-135251231D01*
X80801320Y-135174158D01*
X81010079Y-135061183D01*
X81197395Y-134915389D01*
X81207925Y-134903951D01*
X81358160Y-134740752D01*
X81361366Y-134735845D01*
X81487988Y-134542036D01*
X81583337Y-134324661D01*
X81641607Y-134094557D01*
X81661209Y-133858000D01*
X82422791Y-133858000D01*
X82439337Y-134057680D01*
X82442394Y-134094564D01*
X82500661Y-134324657D01*
X82500662Y-134324658D01*
X82500663Y-134324661D01*
X82558854Y-134457323D01*
X82596013Y-134542038D01*
X82725839Y-134740752D01*
X82886598Y-134915383D01*
X82886603Y-134915387D01*
X82886605Y-134915389D01*
X82987489Y-134993910D01*
X83068582Y-135057028D01*
X83073921Y-135061183D01*
X83282680Y-135174158D01*
X83507186Y-135251231D01*
X83741316Y-135290300D01*
X83741320Y-135290300D01*
X83978680Y-135290300D01*
X83978684Y-135290300D01*
X84212814Y-135251231D01*
X84437320Y-135174158D01*
X84646079Y-135061183D01*
X84833395Y-134915389D01*
X84843925Y-134903951D01*
X84994160Y-134740752D01*
X84997366Y-134735845D01*
X85123988Y-134542036D01*
X85219337Y-134324661D01*
X85277607Y-134094557D01*
X85297209Y-133858000D01*
X87422791Y-133858000D01*
X87439337Y-134057680D01*
X87442394Y-134094564D01*
X87500661Y-134324657D01*
X87500662Y-134324658D01*
X87500663Y-134324661D01*
X87558854Y-134457323D01*
X87596013Y-134542038D01*
X87725839Y-134740752D01*
X87886598Y-134915383D01*
X87886603Y-134915387D01*
X87886605Y-134915389D01*
X87987489Y-134993910D01*
X88068582Y-135057028D01*
X88073921Y-135061183D01*
X88282680Y-135174158D01*
X88507186Y-135251231D01*
X88741316Y-135290300D01*
X88741320Y-135290300D01*
X88978680Y-135290300D01*
X88978684Y-135290300D01*
X89212814Y-135251231D01*
X89437320Y-135174158D01*
X89646079Y-135061183D01*
X89833395Y-134915389D01*
X89843925Y-134903951D01*
X89994160Y-134740752D01*
X89997366Y-134735845D01*
X90123988Y-134542036D01*
X90219337Y-134324661D01*
X90277607Y-134094557D01*
X90297209Y-133858000D01*
X90277607Y-133621443D01*
X90260645Y-133554462D01*
X90219338Y-133391342D01*
X90219337Y-133391341D01*
X90219337Y-133391339D01*
X90123988Y-133173964D01*
X90080249Y-133107017D01*
X89994160Y-132975247D01*
X89833401Y-132800616D01*
X89646081Y-132654818D01*
X89624270Y-132643014D01*
X89437320Y-132541842D01*
X89437316Y-132541840D01*
X89437315Y-132541840D01*
X89212818Y-132464770D01*
X89212809Y-132464768D01*
X89166255Y-132456999D01*
X88978684Y-132425700D01*
X88741316Y-132425700D01*
X88585043Y-132451776D01*
X88507190Y-132464768D01*
X88507181Y-132464770D01*
X88282684Y-132541840D01*
X88073918Y-132654818D01*
X87886598Y-132800616D01*
X87725839Y-132975247D01*
X87596013Y-133173961D01*
X87500662Y-133391341D01*
X87500661Y-133391342D01*
X87442394Y-133621435D01*
X87442393Y-133621441D01*
X87442393Y-133621443D01*
X87422791Y-133858000D01*
X85297209Y-133858000D01*
X85277607Y-133621443D01*
X85260645Y-133554462D01*
X85219338Y-133391342D01*
X85219337Y-133391341D01*
X85219337Y-133391339D01*
X85123988Y-133173964D01*
X85080249Y-133107017D01*
X84994160Y-132975247D01*
X84833401Y-132800616D01*
X84646081Y-132654818D01*
X84624270Y-132643014D01*
X84437320Y-132541842D01*
X84437316Y-132541840D01*
X84437315Y-132541840D01*
X84212818Y-132464770D01*
X84212809Y-132464768D01*
X84166255Y-132456999D01*
X83978684Y-132425700D01*
X83741316Y-132425700D01*
X83585044Y-132451776D01*
X83507190Y-132464768D01*
X83507181Y-132464770D01*
X83282684Y-132541840D01*
X83073918Y-132654818D01*
X82886598Y-132800616D01*
X82725839Y-132975247D01*
X82596013Y-133173961D01*
X82500662Y-133391341D01*
X82500661Y-133391342D01*
X82442394Y-133621435D01*
X82442393Y-133621441D01*
X82442393Y-133621443D01*
X82422791Y-133858000D01*
X81661209Y-133858000D01*
X81641607Y-133621443D01*
X81624645Y-133554462D01*
X81583338Y-133391342D01*
X81583337Y-133391341D01*
X81583337Y-133391339D01*
X81487988Y-133173964D01*
X81444249Y-133107017D01*
X81358160Y-132975247D01*
X81197401Y-132800616D01*
X81010081Y-132654818D01*
X80988270Y-132643014D01*
X80801320Y-132541842D01*
X80801316Y-132541840D01*
X80801315Y-132541840D01*
X80576818Y-132464770D01*
X80576809Y-132464768D01*
X80530255Y-132456999D01*
X80342684Y-132425700D01*
X80105316Y-132425700D01*
X79949044Y-132451776D01*
X79871190Y-132464768D01*
X79871181Y-132464770D01*
X79646684Y-132541840D01*
X79437918Y-132654818D01*
X79250598Y-132800616D01*
X79089839Y-132975247D01*
X78960013Y-133173961D01*
X78864662Y-133391341D01*
X78864661Y-133391342D01*
X78806394Y-133621435D01*
X78806393Y-133621441D01*
X78806393Y-133621443D01*
X78786791Y-133858000D01*
X76661209Y-133858000D01*
X76641607Y-133621443D01*
X76624645Y-133554462D01*
X76583338Y-133391342D01*
X76583337Y-133391341D01*
X76583337Y-133391339D01*
X76487988Y-133173964D01*
X76444249Y-133107017D01*
X76358160Y-132975247D01*
X76197401Y-132800616D01*
X76010081Y-132654818D01*
X75988270Y-132643014D01*
X75801320Y-132541842D01*
X75801316Y-132541840D01*
X75801315Y-132541840D01*
X75576818Y-132464770D01*
X75576809Y-132464768D01*
X75530255Y-132456999D01*
X75342684Y-132425700D01*
X75105316Y-132425700D01*
X74949043Y-132451776D01*
X74871190Y-132464768D01*
X74871181Y-132464770D01*
X74646684Y-132541840D01*
X74437918Y-132654818D01*
X74250598Y-132800616D01*
X74089839Y-132975247D01*
X73960013Y-133173961D01*
X73864662Y-133391341D01*
X73864661Y-133391342D01*
X73806394Y-133621435D01*
X73806393Y-133621441D01*
X73806393Y-133621443D01*
X73786791Y-133858000D01*
X67680537Y-133858000D01*
X67618551Y-133725071D01*
X67574315Y-133661895D01*
X67574313Y-133661895D01*
X66898892Y-134337316D01*
X66899449Y-134330602D01*
X66868234Y-134207338D01*
X66798687Y-134100888D01*
X66698343Y-134022787D01*
X66578078Y-133981500D01*
X66536290Y-133981500D01*
X67215103Y-133302685D01*
X67215103Y-133302684D01*
X67151925Y-133258446D01*
X66950527Y-133164533D01*
X66950523Y-133164531D01*
X66735874Y-133107017D01*
X66514499Y-133087649D01*
X66293125Y-133107017D01*
X66078476Y-133164531D01*
X66078472Y-133164533D01*
X65877075Y-133258446D01*
X65813894Y-133302685D01*
X66492709Y-133981500D01*
X66482931Y-133981500D01*
X66389079Y-133997161D01*
X66277249Y-134057680D01*
X66191129Y-134151231D01*
X66140052Y-134267677D01*
X66133961Y-134341170D01*
X65454685Y-133661894D01*
X65410446Y-133725075D01*
X65318204Y-133922888D01*
X65271286Y-133976173D01*
X65203009Y-133995634D01*
X65135049Y-133975092D01*
X65091220Y-133925803D01*
X64994264Y-133731089D01*
X64911457Y-133621435D01*
X64860882Y-133554462D01*
X64860879Y-133554459D01*
X64697310Y-133405345D01*
X64509126Y-133288827D01*
X64509119Y-133288824D01*
X64302742Y-133208872D01*
X64085168Y-133168200D01*
X63863832Y-133168200D01*
X63863831Y-133168200D01*
X63646257Y-133208872D01*
X63439880Y-133288824D01*
X63439873Y-133288827D01*
X63251691Y-133405344D01*
X63088117Y-133554462D01*
X62954737Y-133731087D01*
X62856076Y-133929225D01*
X62795506Y-134142106D01*
X62775084Y-134362500D01*
X59953850Y-134362500D01*
X59934482Y-134141125D01*
X59876968Y-133926476D01*
X59876966Y-133926472D01*
X59783051Y-133725071D01*
X59738815Y-133661895D01*
X59738813Y-133661895D01*
X59063392Y-134337316D01*
X59063949Y-134330602D01*
X59032734Y-134207338D01*
X58963187Y-134100888D01*
X58862843Y-134022787D01*
X58742578Y-133981500D01*
X58700790Y-133981500D01*
X59379603Y-133302685D01*
X59379603Y-133302684D01*
X59316425Y-133258446D01*
X59115027Y-133164533D01*
X59115023Y-133164531D01*
X58900374Y-133107017D01*
X58679000Y-133087649D01*
X58457625Y-133107017D01*
X58242976Y-133164531D01*
X58242972Y-133164533D01*
X58041575Y-133258446D01*
X57978394Y-133302685D01*
X58657209Y-133981500D01*
X58647431Y-133981500D01*
X58553579Y-133997161D01*
X58441749Y-134057680D01*
X58355629Y-134151231D01*
X58304552Y-134267677D01*
X58298461Y-134341170D01*
X57619185Y-133661894D01*
X57574946Y-133725075D01*
X57482704Y-133922888D01*
X57435786Y-133976173D01*
X57367509Y-133995634D01*
X57299549Y-133975092D01*
X57255720Y-133925803D01*
X57158764Y-133731089D01*
X57075957Y-133621435D01*
X57025382Y-133554462D01*
X57025379Y-133554459D01*
X56861810Y-133405345D01*
X56673626Y-133288827D01*
X56673619Y-133288824D01*
X56467242Y-133208872D01*
X56249668Y-133168200D01*
X56028332Y-133168200D01*
X56028331Y-133168200D01*
X55810757Y-133208872D01*
X55604380Y-133288824D01*
X55604373Y-133288827D01*
X55416191Y-133405344D01*
X55252617Y-133554462D01*
X55119237Y-133731087D01*
X55020576Y-133929225D01*
X54960006Y-134142106D01*
X54939584Y-134362500D01*
X51825850Y-134362500D01*
X51806482Y-134141125D01*
X51748968Y-133926476D01*
X51748966Y-133926472D01*
X51655051Y-133725071D01*
X51610815Y-133661895D01*
X51610813Y-133661895D01*
X50935392Y-134337316D01*
X50935949Y-134330602D01*
X50904734Y-134207338D01*
X50835187Y-134100888D01*
X50734843Y-134022787D01*
X50614578Y-133981500D01*
X50572790Y-133981500D01*
X51251603Y-133302685D01*
X51251603Y-133302684D01*
X51188425Y-133258446D01*
X50987027Y-133164533D01*
X50987023Y-133164531D01*
X50772374Y-133107017D01*
X50551000Y-133087649D01*
X50329625Y-133107017D01*
X50114976Y-133164531D01*
X50114972Y-133164533D01*
X49913575Y-133258446D01*
X49850394Y-133302685D01*
X50529209Y-133981500D01*
X50519431Y-133981500D01*
X50425579Y-133997161D01*
X50313749Y-134057680D01*
X50227629Y-134151231D01*
X50176552Y-134267677D01*
X50170461Y-134341170D01*
X49491185Y-133661894D01*
X49446946Y-133725075D01*
X49354704Y-133922888D01*
X49307786Y-133976173D01*
X49239509Y-133995634D01*
X49171549Y-133975092D01*
X49127720Y-133925803D01*
X49030764Y-133731089D01*
X48947957Y-133621435D01*
X48897382Y-133554462D01*
X48897379Y-133554459D01*
X48733810Y-133405345D01*
X48545626Y-133288827D01*
X48545619Y-133288824D01*
X48339242Y-133208872D01*
X48121668Y-133168200D01*
X47900332Y-133168200D01*
X47900331Y-133168200D01*
X47682757Y-133208872D01*
X47476380Y-133288824D01*
X47476373Y-133288827D01*
X47288191Y-133405344D01*
X47124617Y-133554462D01*
X46991237Y-133731087D01*
X46892576Y-133929225D01*
X46832006Y-134142106D01*
X46811584Y-134362500D01*
X23762874Y-134362500D01*
X23759211Y-134313616D01*
X23699912Y-134053814D01*
X23699911Y-134053812D01*
X23602558Y-133805757D01*
X23602556Y-133805753D01*
X23469314Y-133574971D01*
X23469308Y-133574963D01*
X23420699Y-133514010D01*
X23420698Y-133514009D01*
X22560141Y-134374566D01*
X22519750Y-134277054D01*
X22423666Y-134151834D01*
X22298446Y-134055750D01*
X22200932Y-134015358D01*
X23062094Y-133154195D01*
X23062094Y-133154193D01*
X22887635Y-133035250D01*
X22887627Y-133035245D01*
X22647547Y-132919628D01*
X22647529Y-132919621D01*
X22392902Y-132841079D01*
X22392890Y-132841077D01*
X22129379Y-132801360D01*
X21862901Y-132801360D01*
X21599389Y-132841077D01*
X21599377Y-132841079D01*
X21344750Y-132919621D01*
X21344732Y-132919628D01*
X21104656Y-133035243D01*
X20930184Y-133154194D01*
X20930184Y-133154195D01*
X21791347Y-134015358D01*
X21693834Y-134055750D01*
X21568614Y-134151834D01*
X21472530Y-134277053D01*
X21432138Y-134374567D01*
X20571581Y-133514010D01*
X20571579Y-133514010D01*
X20522968Y-133574967D01*
X20522963Y-133574975D01*
X20389723Y-133805753D01*
X20389721Y-133805757D01*
X20292368Y-134053812D01*
X20292367Y-134053814D01*
X20233068Y-134313616D01*
X20213154Y-134579360D01*
X16002500Y-134579360D01*
X16002500Y-130902708D01*
X20293840Y-130902708D01*
X20296579Y-130931918D01*
X20296580Y-130931922D01*
X20339618Y-131054918D01*
X20339619Y-131054919D01*
X20339620Y-131054922D01*
X20417005Y-131159775D01*
X20521858Y-131237160D01*
X20644863Y-131280201D01*
X20674070Y-131282940D01*
X20674073Y-131282940D01*
X23318207Y-131282940D01*
X23318210Y-131282940D01*
X23347417Y-131280201D01*
X23470422Y-131237160D01*
X23575275Y-131159775D01*
X23652660Y-131054922D01*
X23695701Y-130931917D01*
X23698440Y-130902710D01*
X23698440Y-130157787D01*
X31503427Y-130157787D01*
X31522494Y-130412213D01*
X31522495Y-130412217D01*
X31579266Y-130660954D01*
X31579268Y-130660959D01*
X31672476Y-130898451D01*
X31672478Y-130898455D01*
X31800047Y-131119411D01*
X31800049Y-131119414D01*
X31800050Y-131119415D01*
X31959127Y-131318892D01*
X32146157Y-131492430D01*
X32146163Y-131492434D01*
X32356961Y-131636154D01*
X32356969Y-131636159D01*
X32586826Y-131746852D01*
X32586844Y-131746859D01*
X32830630Y-131822057D01*
X32830632Y-131822057D01*
X32830641Y-131822060D01*
X33082930Y-131860087D01*
X33082934Y-131860087D01*
X33338066Y-131860087D01*
X33338070Y-131860087D01*
X33590359Y-131822060D01*
X33692055Y-131790691D01*
X33834158Y-131746858D01*
X33834159Y-131746857D01*
X33834164Y-131746856D01*
X34064037Y-131636156D01*
X34274843Y-131492430D01*
X34292137Y-131476384D01*
X35242500Y-131476384D01*
X35249005Y-131536880D01*
X35300055Y-131673751D01*
X35300055Y-131673752D01*
X35387595Y-131790691D01*
X35504534Y-131878231D01*
X35641406Y-131929281D01*
X35701902Y-131935786D01*
X35701915Y-131935787D01*
X36766500Y-131935787D01*
X36766500Y-130880696D01*
X36931435Y-130919787D01*
X37064877Y-130919787D01*
X37197425Y-130904294D01*
X37274500Y-130876241D01*
X37274500Y-131935787D01*
X38339085Y-131935787D01*
X38339097Y-131935786D01*
X38399593Y-131929281D01*
X38536464Y-131878231D01*
X38536465Y-131878231D01*
X38653404Y-131790691D01*
X38740944Y-131673752D01*
X38740944Y-131673751D01*
X38791994Y-131536880D01*
X38798499Y-131476384D01*
X38798500Y-131476372D01*
X38798500Y-130411787D01*
X37739872Y-130411787D01*
X37761210Y-130340516D01*
X106846000Y-130340516D01*
X106856605Y-130444318D01*
X106856606Y-130444321D01*
X106912342Y-130612525D01*
X107005365Y-130763339D01*
X107005370Y-130763345D01*
X107130654Y-130888629D01*
X107130660Y-130888634D01*
X107281474Y-130981657D01*
X107449678Y-131037393D01*
X107449681Y-131037394D01*
X107553483Y-131047999D01*
X107553483Y-131048000D01*
X107950000Y-131048000D01*
X107950000Y-129973674D01*
X108061685Y-130024680D01*
X108168237Y-130040000D01*
X108239763Y-130040000D01*
X108346315Y-130024680D01*
X108458000Y-129973674D01*
X108458000Y-131048000D01*
X108854517Y-131048000D01*
X108854516Y-131047999D01*
X108958318Y-131037394D01*
X108958321Y-131037393D01*
X109126525Y-130981657D01*
X109277339Y-130888634D01*
X109277345Y-130888629D01*
X109402629Y-130763345D01*
X109402634Y-130763339D01*
X109495658Y-130612523D01*
X109510406Y-130568016D01*
X109550819Y-130509644D01*
X109616375Y-130482387D01*
X109686261Y-130494900D01*
X109719106Y-130518552D01*
X109876605Y-130676051D01*
X110060401Y-130804746D01*
X110263752Y-130899570D01*
X110480480Y-130957643D01*
X110704000Y-130977198D01*
X110927520Y-130957643D01*
X111144248Y-130899570D01*
X111347599Y-130804746D01*
X111531395Y-130676051D01*
X111690051Y-130517395D01*
X111818746Y-130333599D01*
X111913570Y-130130248D01*
X111971643Y-129913520D01*
X111986300Y-129745986D01*
X111986300Y-129334014D01*
X111971643Y-129166480D01*
X111913570Y-128949752D01*
X111818746Y-128746401D01*
X111690051Y-128562605D01*
X111531395Y-128403949D01*
X111406724Y-128316654D01*
X111347599Y-128275254D01*
X111144251Y-128180431D01*
X111144245Y-128180429D01*
X111052650Y-128155886D01*
X110927520Y-128122357D01*
X110704000Y-128102802D01*
X110480480Y-128122357D01*
X110263754Y-128180429D01*
X110263748Y-128180431D01*
X110060400Y-128275254D01*
X109876608Y-128403946D01*
X109719106Y-128561448D01*
X109656794Y-128595473D01*
X109585978Y-128590408D01*
X109529143Y-128547861D01*
X109510406Y-128511984D01*
X109495657Y-128467475D01*
X109402634Y-128316660D01*
X109402629Y-128316654D01*
X109277345Y-128191370D01*
X109277339Y-128191365D01*
X109126525Y-128098342D01*
X108958321Y-128042606D01*
X108958318Y-128042605D01*
X108854516Y-128032000D01*
X108458000Y-128032000D01*
X108458000Y-129106325D01*
X108346315Y-129055320D01*
X108239763Y-129040000D01*
X108168237Y-129040000D01*
X108061685Y-129055320D01*
X107950000Y-129106325D01*
X107950000Y-128032000D01*
X107553483Y-128032000D01*
X107449681Y-128042605D01*
X107449678Y-128042606D01*
X107281474Y-128098342D01*
X107130660Y-128191365D01*
X107130654Y-128191370D01*
X107005370Y-128316654D01*
X107005365Y-128316660D01*
X106912342Y-128467474D01*
X106856606Y-128635678D01*
X106856605Y-128635681D01*
X106846000Y-128739483D01*
X106846000Y-129286000D01*
X107772884Y-129286000D01*
X107744507Y-129330156D01*
X107704000Y-129468111D01*
X107704000Y-129611889D01*
X107744507Y-129749844D01*
X107772884Y-129794000D01*
X106846000Y-129794000D01*
X106846000Y-130340516D01*
X37761210Y-130340516D01*
X37776032Y-130291008D01*
X37786389Y-130113179D01*
X37755457Y-129937755D01*
X37740804Y-129903787D01*
X38798500Y-129903787D01*
X38798500Y-128839201D01*
X38798499Y-128839189D01*
X38791994Y-128778693D01*
X38740944Y-128641822D01*
X38740944Y-128641821D01*
X38653404Y-128524882D01*
X38536465Y-128437342D01*
X38399593Y-128386292D01*
X38339097Y-128379787D01*
X37274500Y-128379787D01*
X37274500Y-129434877D01*
X37109565Y-129395787D01*
X36976123Y-129395787D01*
X36843575Y-129411280D01*
X36766500Y-129439332D01*
X36766500Y-128379787D01*
X35701902Y-128379787D01*
X35641406Y-128386292D01*
X35504535Y-128437342D01*
X35504534Y-128437342D01*
X35387595Y-128524882D01*
X35300055Y-128641821D01*
X35300055Y-128641822D01*
X35249005Y-128778693D01*
X35242500Y-128839189D01*
X35242500Y-129903787D01*
X36301128Y-129903787D01*
X36264968Y-130024566D01*
X36254611Y-130202395D01*
X36285543Y-130377819D01*
X36300196Y-130411787D01*
X35242500Y-130411787D01*
X35242500Y-131476384D01*
X34292137Y-131476384D01*
X34461873Y-131318892D01*
X34620950Y-131119415D01*
X34748520Y-130898458D01*
X34841733Y-130660956D01*
X34898506Y-130412213D01*
X34917573Y-130157787D01*
X34898506Y-129903361D01*
X34841733Y-129654618D01*
X34770141Y-129472204D01*
X34748523Y-129417122D01*
X34748521Y-129417118D01*
X34745150Y-129411280D01*
X34672820Y-129286000D01*
X34620952Y-129196162D01*
X34620950Y-129196159D01*
X34461873Y-128996682D01*
X34274843Y-128823144D01*
X34064037Y-128679418D01*
X34064034Y-128679417D01*
X34064032Y-128679415D01*
X34064031Y-128679414D01*
X33834165Y-128568718D01*
X33834158Y-128568715D01*
X33590369Y-128493516D01*
X33590361Y-128493514D01*
X33590359Y-128493514D01*
X33338070Y-128455487D01*
X33082930Y-128455487D01*
X32830641Y-128493514D01*
X32830639Y-128493514D01*
X32830630Y-128493516D01*
X32586844Y-128568714D01*
X32586826Y-128568721D01*
X32356969Y-128679414D01*
X32356961Y-128679419D01*
X32146163Y-128823139D01*
X32146158Y-128823143D01*
X31959128Y-128996681D01*
X31800047Y-129196162D01*
X31672478Y-129417118D01*
X31672476Y-129417122D01*
X31579268Y-129654614D01*
X31579266Y-129654619D01*
X31533778Y-129853920D01*
X31522494Y-129903361D01*
X31503427Y-130157787D01*
X23698440Y-130157787D01*
X23698440Y-128258570D01*
X23695701Y-128229363D01*
X23652660Y-128106358D01*
X23575275Y-128001505D01*
X23470422Y-127924120D01*
X23470419Y-127924119D01*
X23470418Y-127924118D01*
X23347422Y-127881080D01*
X23347418Y-127881079D01*
X23332813Y-127879709D01*
X23318210Y-127878340D01*
X20674070Y-127878340D01*
X20644861Y-127881079D01*
X20644857Y-127881080D01*
X20521861Y-127924118D01*
X20521858Y-127924119D01*
X20521858Y-127924120D01*
X20417005Y-128001505D01*
X20342245Y-128102802D01*
X20339618Y-128106361D01*
X20296580Y-128229357D01*
X20296579Y-128229361D01*
X20293840Y-128258570D01*
X20293840Y-130902708D01*
X16002500Y-130902708D01*
X16002500Y-123707660D01*
X20289067Y-123707660D01*
X20308134Y-123962086D01*
X20308135Y-123962090D01*
X20364906Y-124210827D01*
X20364908Y-124210832D01*
X20458116Y-124448324D01*
X20458118Y-124448328D01*
X20585687Y-124669284D01*
X20585689Y-124669287D01*
X20585690Y-124669288D01*
X20744767Y-124868765D01*
X20931797Y-125042303D01*
X20931803Y-125042307D01*
X21142601Y-125186027D01*
X21142609Y-125186032D01*
X21372466Y-125296725D01*
X21372484Y-125296732D01*
X21616270Y-125371930D01*
X21616272Y-125371930D01*
X21616281Y-125371933D01*
X21868570Y-125409960D01*
X21868574Y-125409960D01*
X22123706Y-125409960D01*
X22123710Y-125409960D01*
X22375999Y-125371933D01*
X22376009Y-125371930D01*
X22619798Y-125296731D01*
X22619799Y-125296730D01*
X22619804Y-125296729D01*
X22849677Y-125186029D01*
X23060483Y-125042303D01*
X23247513Y-124868765D01*
X23406590Y-124669288D01*
X23534160Y-124448331D01*
X23627373Y-124210829D01*
X23684146Y-123962086D01*
X23703213Y-123707660D01*
X23684146Y-123453234D01*
X23627373Y-123204491D01*
X23590087Y-123109490D01*
X23534163Y-122966995D01*
X23534161Y-122966991D01*
X23406592Y-122746035D01*
X23406590Y-122746032D01*
X23247513Y-122546555D01*
X23060483Y-122373017D01*
X23037753Y-122357520D01*
X22849678Y-122229292D01*
X22849677Y-122229291D01*
X22849674Y-122229290D01*
X22849672Y-122229288D01*
X22849671Y-122229287D01*
X22619805Y-122118591D01*
X22619798Y-122118588D01*
X22376009Y-122043389D01*
X22376001Y-122043387D01*
X22375999Y-122043387D01*
X22123710Y-122005360D01*
X21868570Y-122005360D01*
X21616281Y-122043387D01*
X21616279Y-122043387D01*
X21616270Y-122043389D01*
X21372484Y-122118587D01*
X21372466Y-122118594D01*
X21142609Y-122229287D01*
X21142601Y-122229292D01*
X20931803Y-122373012D01*
X20931798Y-122373016D01*
X20744768Y-122546554D01*
X20585687Y-122746035D01*
X20458118Y-122966991D01*
X20458116Y-122966995D01*
X20364908Y-123204487D01*
X20364906Y-123204492D01*
X20319909Y-123401642D01*
X20308134Y-123453234D01*
X20289067Y-123707660D01*
X16002500Y-123707660D01*
X16002500Y-118706400D01*
X20289067Y-118706400D01*
X20308134Y-118960826D01*
X20308135Y-118960830D01*
X20364906Y-119209567D01*
X20364908Y-119209572D01*
X20458116Y-119447064D01*
X20458118Y-119447068D01*
X20585687Y-119668024D01*
X20585689Y-119668027D01*
X20585690Y-119668028D01*
X20744767Y-119867505D01*
X20931797Y-120041043D01*
X20931803Y-120041047D01*
X21142601Y-120184767D01*
X21142609Y-120184772D01*
X21372466Y-120295465D01*
X21372484Y-120295472D01*
X21616270Y-120370670D01*
X21616272Y-120370670D01*
X21616281Y-120370673D01*
X21868570Y-120408700D01*
X21868574Y-120408700D01*
X22123706Y-120408700D01*
X22123710Y-120408700D01*
X22375999Y-120370673D01*
X22376009Y-120370670D01*
X22619798Y-120295471D01*
X22619799Y-120295470D01*
X22619804Y-120295469D01*
X22642548Y-120284516D01*
X107712000Y-120284516D01*
X107722605Y-120388318D01*
X107722606Y-120388321D01*
X107778342Y-120556525D01*
X107871365Y-120707339D01*
X107871370Y-120707345D01*
X107996654Y-120832629D01*
X107996660Y-120832634D01*
X108147475Y-120925657D01*
X108191984Y-120940406D01*
X108250356Y-120980820D01*
X108277612Y-121046376D01*
X108265099Y-121116261D01*
X108241448Y-121149106D01*
X108083946Y-121306608D01*
X107955254Y-121490400D01*
X107860431Y-121693748D01*
X107860430Y-121693752D01*
X107802357Y-121910480D01*
X107782802Y-122134000D01*
X107802357Y-122357520D01*
X107835886Y-122482650D01*
X107853009Y-122546555D01*
X107860430Y-122574248D01*
X107955254Y-122777599D01*
X108083949Y-122961395D01*
X108242605Y-123120051D01*
X108426401Y-123248746D01*
X108629752Y-123343570D01*
X108846480Y-123401643D01*
X109014014Y-123416300D01*
X109014020Y-123416300D01*
X109425980Y-123416300D01*
X109425986Y-123416300D01*
X109593520Y-123401643D01*
X109810248Y-123343570D01*
X110013599Y-123248746D01*
X110197395Y-123120051D01*
X110356051Y-122961395D01*
X110484746Y-122777599D01*
X110579570Y-122574248D01*
X110637643Y-122357520D01*
X110657198Y-122134000D01*
X110637643Y-121910480D01*
X110579570Y-121693752D01*
X110484746Y-121490401D01*
X110356051Y-121306605D01*
X110198552Y-121149106D01*
X110164526Y-121086794D01*
X110169591Y-121015979D01*
X110212138Y-120959143D01*
X110248016Y-120940406D01*
X110292523Y-120925658D01*
X110443339Y-120832634D01*
X110443345Y-120832629D01*
X110568629Y-120707345D01*
X110568634Y-120707339D01*
X110661657Y-120556525D01*
X110717393Y-120388321D01*
X110717394Y-120388318D01*
X110727999Y-120284516D01*
X110728000Y-120284516D01*
X110728000Y-119888000D01*
X109651116Y-119888000D01*
X109679493Y-119843844D01*
X109720000Y-119705889D01*
X109720000Y-119562111D01*
X109679493Y-119424156D01*
X109651116Y-119380000D01*
X110728000Y-119380000D01*
X110728000Y-118983483D01*
X110717394Y-118879681D01*
X110717393Y-118879678D01*
X110661657Y-118711474D01*
X110568634Y-118560660D01*
X110568629Y-118560654D01*
X110443345Y-118435370D01*
X110443339Y-118435365D01*
X110292525Y-118342342D01*
X110124321Y-118286606D01*
X110124318Y-118286605D01*
X110020516Y-118276000D01*
X109474000Y-118276000D01*
X109474000Y-119200325D01*
X109362315Y-119149320D01*
X109255763Y-119134000D01*
X109184237Y-119134000D01*
X109077685Y-119149320D01*
X108966000Y-119200325D01*
X108966000Y-118276000D01*
X108419483Y-118276000D01*
X108315681Y-118286605D01*
X108315678Y-118286606D01*
X108147474Y-118342342D01*
X107996660Y-118435365D01*
X107996654Y-118435370D01*
X107871370Y-118560654D01*
X107871365Y-118560660D01*
X107778342Y-118711474D01*
X107722606Y-118879678D01*
X107722605Y-118879681D01*
X107712000Y-118983483D01*
X107712000Y-119380000D01*
X108788884Y-119380000D01*
X108760507Y-119424156D01*
X108720000Y-119562111D01*
X108720000Y-119705889D01*
X108760507Y-119843844D01*
X108788884Y-119888000D01*
X107712000Y-119888000D01*
X107712000Y-120284516D01*
X22642548Y-120284516D01*
X22849677Y-120184769D01*
X23060483Y-120041043D01*
X23247513Y-119867505D01*
X23406590Y-119668028D01*
X23534160Y-119447071D01*
X23627373Y-119209569D01*
X23684146Y-118960826D01*
X23703213Y-118706400D01*
X23684146Y-118451974D01*
X23627373Y-118203231D01*
X23590087Y-118108230D01*
X23534163Y-117965735D01*
X23534161Y-117965731D01*
X23406592Y-117744775D01*
X23406590Y-117744772D01*
X23247513Y-117545295D01*
X23060483Y-117371757D01*
X22849677Y-117228031D01*
X22849674Y-117228030D01*
X22849672Y-117228028D01*
X22849671Y-117228027D01*
X22619805Y-117117331D01*
X22619798Y-117117328D01*
X22376009Y-117042129D01*
X22376001Y-117042127D01*
X22375999Y-117042127D01*
X22123710Y-117004100D01*
X21868570Y-117004100D01*
X21616281Y-117042127D01*
X21616279Y-117042127D01*
X21616270Y-117042129D01*
X21372484Y-117117327D01*
X21372466Y-117117334D01*
X21142609Y-117228027D01*
X21142601Y-117228032D01*
X20931803Y-117371752D01*
X20931798Y-117371756D01*
X20744768Y-117545294D01*
X20585687Y-117744775D01*
X20458118Y-117965731D01*
X20458116Y-117965735D01*
X20364908Y-118203227D01*
X20364906Y-118203232D01*
X20335048Y-118334053D01*
X20308134Y-118451974D01*
X20289067Y-118706400D01*
X16002500Y-118706400D01*
X16002500Y-115029749D01*
X20293840Y-115029749D01*
X20296579Y-115058958D01*
X20296580Y-115058962D01*
X20339618Y-115181958D01*
X20339619Y-115181959D01*
X20339620Y-115181962D01*
X20417005Y-115286815D01*
X20521858Y-115364200D01*
X20644863Y-115407241D01*
X20674070Y-115409980D01*
X20674073Y-115409980D01*
X23318207Y-115409980D01*
X23318210Y-115409980D01*
X23347417Y-115407241D01*
X23470422Y-115364200D01*
X23575275Y-115286815D01*
X23652660Y-115181962D01*
X23694636Y-115062000D01*
X87533455Y-115062000D01*
X87581176Y-115250449D01*
X87581179Y-115250456D01*
X87671580Y-115456548D01*
X87794674Y-115644958D01*
X87947097Y-115810534D01*
X88124698Y-115948767D01*
X88124699Y-115948768D01*
X88233916Y-116007873D01*
X88284307Y-116057886D01*
X88299659Y-116127203D01*
X88275098Y-116193816D01*
X88230830Y-116229923D01*
X88231165Y-116230503D01*
X88227585Y-116232569D01*
X88227210Y-116232876D01*
X88226403Y-116233252D01*
X88042608Y-116361946D01*
X88042602Y-116361951D01*
X87883951Y-116520602D01*
X87883946Y-116520608D01*
X87755254Y-116704400D01*
X87660431Y-116907748D01*
X87660430Y-116907752D01*
X87602357Y-117124480D01*
X87582802Y-117348000D01*
X87602357Y-117571520D01*
X87660430Y-117788248D01*
X87755254Y-117991599D01*
X87883949Y-118175395D01*
X88042605Y-118334051D01*
X88226401Y-118462746D01*
X88429752Y-118557570D01*
X88646480Y-118615643D01*
X88870000Y-118635198D01*
X89093520Y-118615643D01*
X89310248Y-118557570D01*
X89513599Y-118462746D01*
X89697395Y-118334051D01*
X89856051Y-118175395D01*
X89984746Y-117991599D01*
X90079570Y-117788248D01*
X90137643Y-117571520D01*
X90157198Y-117348000D01*
X90137643Y-117124480D01*
X90079570Y-116907752D01*
X89984746Y-116704401D01*
X89856051Y-116520605D01*
X89697395Y-116361949D01*
X89513599Y-116233254D01*
X89513595Y-116233251D01*
X89512797Y-116232879D01*
X89512505Y-116232621D01*
X89508835Y-116230503D01*
X89509260Y-116229765D01*
X89459514Y-116185960D01*
X89440056Y-116117681D01*
X89460601Y-116049722D01*
X89506083Y-116007873D01*
X89615300Y-115948768D01*
X89615301Y-115948767D01*
X89792902Y-115810534D01*
X89945325Y-115644958D01*
X90068419Y-115456548D01*
X90158820Y-115250456D01*
X90158823Y-115250449D01*
X90206544Y-115062000D01*
X89301116Y-115062000D01*
X89329493Y-115017844D01*
X89370000Y-114879889D01*
X89370000Y-114736111D01*
X89329493Y-114598156D01*
X89301116Y-114554000D01*
X90206544Y-114554000D01*
X90206544Y-114553999D01*
X90158823Y-114365550D01*
X90158820Y-114365543D01*
X90068419Y-114159451D01*
X89945325Y-113971041D01*
X89792902Y-113805465D01*
X89615303Y-113667233D01*
X89506082Y-113608126D01*
X89455692Y-113558112D01*
X89440340Y-113488795D01*
X89464901Y-113422182D01*
X89509172Y-113386080D01*
X89508835Y-113385497D01*
X89512442Y-113383414D01*
X89512811Y-113383113D01*
X89513599Y-113382746D01*
X89697395Y-113254051D01*
X89856051Y-113095395D01*
X89984746Y-112911599D01*
X90079570Y-112708248D01*
X90137643Y-112491520D01*
X90157198Y-112268000D01*
X90137643Y-112044480D01*
X90079570Y-111827752D01*
X89984746Y-111624401D01*
X89856051Y-111440605D01*
X89697395Y-111281949D01*
X89673130Y-111264958D01*
X89513595Y-111153251D01*
X89512797Y-111152879D01*
X89512505Y-111152621D01*
X89508835Y-111150503D01*
X89509260Y-111149765D01*
X89459514Y-111105960D01*
X89440056Y-111037681D01*
X89460601Y-110969722D01*
X89506083Y-110927873D01*
X89615300Y-110868768D01*
X89615301Y-110868767D01*
X89792902Y-110730534D01*
X89817328Y-110704000D01*
X107758437Y-110704000D01*
X108818602Y-110704000D01*
X108783481Y-110758649D01*
X108745000Y-110889705D01*
X108745000Y-111026295D01*
X108783481Y-111157351D01*
X108818602Y-111212000D01*
X107760561Y-111212000D01*
X107791831Y-111357093D01*
X107878022Y-111571587D01*
X107999227Y-111768435D01*
X108151951Y-111941961D01*
X108151954Y-111941964D01*
X108331802Y-112087182D01*
X108426353Y-112140001D01*
X108476069Y-112190685D01*
X108490490Y-112260202D01*
X108465039Y-112326480D01*
X108437175Y-112353214D01*
X108267608Y-112471946D01*
X108267602Y-112471951D01*
X108108951Y-112630602D01*
X108108946Y-112630608D01*
X107980254Y-112814400D01*
X107885431Y-113017748D01*
X107885429Y-113017754D01*
X107827356Y-113234479D01*
X107827357Y-113234480D01*
X107807802Y-113458000D01*
X107827357Y-113681520D01*
X107885430Y-113898248D01*
X107980254Y-114101599D01*
X108108949Y-114285395D01*
X108267605Y-114444051D01*
X108451401Y-114572746D01*
X108654752Y-114667570D01*
X108871480Y-114725643D01*
X109039014Y-114740300D01*
X109039020Y-114740300D01*
X109400980Y-114740300D01*
X109400986Y-114740300D01*
X109568520Y-114725643D01*
X109785248Y-114667570D01*
X109988599Y-114572746D01*
X110172395Y-114444051D01*
X110331051Y-114285395D01*
X110459746Y-114101599D01*
X110554570Y-113898248D01*
X110612643Y-113681520D01*
X110632198Y-113458000D01*
X110612643Y-113234480D01*
X110554570Y-113017752D01*
X110459746Y-112814401D01*
X110331051Y-112630605D01*
X110172395Y-112471949D01*
X110172391Y-112471946D01*
X110006972Y-112356118D01*
X109962644Y-112300661D01*
X109955335Y-112230041D01*
X109987366Y-112166681D01*
X110008687Y-112148512D01*
X110201208Y-112018391D01*
X110201213Y-112018387D01*
X110368096Y-111858443D01*
X110368102Y-111858435D01*
X110505556Y-111672586D01*
X110609630Y-111466165D01*
X110677320Y-111245135D01*
X110681563Y-111212000D01*
X109621398Y-111212000D01*
X109656519Y-111157351D01*
X109695000Y-111026295D01*
X109695000Y-110889705D01*
X109656519Y-110758649D01*
X109621398Y-110704000D01*
X110679439Y-110704000D01*
X110648168Y-110558906D01*
X110561977Y-110344412D01*
X110440772Y-110147564D01*
X110288050Y-109974040D01*
X110195692Y-109899466D01*
X110155258Y-109841108D01*
X110152792Y-109770155D01*
X110189078Y-109709132D01*
X110223140Y-109686532D01*
X110227070Y-109684762D01*
X110227081Y-109684759D01*
X110368878Y-109599040D01*
X110486040Y-109481878D01*
X110571759Y-109340081D01*
X110621053Y-109181891D01*
X110627300Y-109113145D01*
X110627299Y-107802856D01*
X110621053Y-107734109D01*
X110571759Y-107575919D01*
X110486040Y-107434122D01*
X110486038Y-107434120D01*
X110486034Y-107434115D01*
X110368884Y-107316965D01*
X110368874Y-107316957D01*
X110292217Y-107270617D01*
X110227081Y-107231241D01*
X110068891Y-107181947D01*
X110068889Y-107181946D01*
X110068887Y-107181946D01*
X110025128Y-107177970D01*
X110000145Y-107175700D01*
X110000141Y-107175700D01*
X108439858Y-107175700D01*
X108371112Y-107181946D01*
X108212919Y-107231241D01*
X108071125Y-107316957D01*
X108071115Y-107316965D01*
X107953965Y-107434115D01*
X107953957Y-107434125D01*
X107868241Y-107575919D01*
X107818946Y-107734110D01*
X107818946Y-107734113D01*
X107812700Y-107802858D01*
X107812700Y-109113141D01*
X107818946Y-109181887D01*
X107818946Y-109181889D01*
X107818947Y-109181891D01*
X107868241Y-109340081D01*
X107888577Y-109373721D01*
X107953957Y-109481874D01*
X107953965Y-109481884D01*
X108071115Y-109599034D01*
X108071120Y-109599038D01*
X108071122Y-109599040D01*
X108212919Y-109684759D01*
X108212921Y-109684759D01*
X108219441Y-109688701D01*
X108218610Y-109690074D01*
X108265753Y-109730470D01*
X108286130Y-109798480D01*
X108266504Y-109866710D01*
X108242440Y-109893677D01*
X108242657Y-109893903D01*
X108239773Y-109896666D01*
X108239302Y-109897195D01*
X108238794Y-109897604D01*
X108071903Y-110057556D01*
X108071897Y-110057564D01*
X107934443Y-110243413D01*
X107830369Y-110449834D01*
X107762679Y-110670864D01*
X107758437Y-110704000D01*
X89817328Y-110704000D01*
X89945325Y-110564958D01*
X90068419Y-110376548D01*
X90158820Y-110170456D01*
X90158823Y-110170449D01*
X90206544Y-109982000D01*
X89301116Y-109982000D01*
X89329493Y-109937844D01*
X89370000Y-109799889D01*
X89370000Y-109656111D01*
X89329493Y-109518156D01*
X89301116Y-109474000D01*
X90206544Y-109474000D01*
X90206544Y-109473999D01*
X90158823Y-109285550D01*
X90158820Y-109285543D01*
X90068419Y-109079451D01*
X89945325Y-108891041D01*
X89792899Y-108725462D01*
X89748181Y-108690656D01*
X89706710Y-108633031D01*
X89702977Y-108562133D01*
X89738167Y-108500471D01*
X89794192Y-108470529D01*
X89794040Y-108470094D01*
X89796839Y-108469114D01*
X89798689Y-108468126D01*
X89801271Y-108467561D01*
X89801277Y-108467561D01*
X89924282Y-108424520D01*
X90029135Y-108347135D01*
X90106520Y-108242282D01*
X90149561Y-108119277D01*
X90152300Y-108090070D01*
X90152300Y-106285930D01*
X90149561Y-106256723D01*
X90106520Y-106133718D01*
X90029135Y-106028865D01*
X89924282Y-105951480D01*
X89924279Y-105951479D01*
X89924278Y-105951478D01*
X89801282Y-105908440D01*
X89801278Y-105908439D01*
X89786673Y-105907069D01*
X89772070Y-105905700D01*
X87967930Y-105905700D01*
X87938721Y-105908439D01*
X87938717Y-105908440D01*
X87815721Y-105951478D01*
X87710865Y-106028865D01*
X87633478Y-106133721D01*
X87590440Y-106256717D01*
X87590439Y-106256721D01*
X87587700Y-106285930D01*
X87587700Y-108090069D01*
X87590439Y-108119278D01*
X87590440Y-108119282D01*
X87633478Y-108242278D01*
X87633479Y-108242279D01*
X87633480Y-108242282D01*
X87710865Y-108347135D01*
X87815718Y-108424520D01*
X87938723Y-108467561D01*
X87938725Y-108467561D01*
X87941313Y-108468127D01*
X87943041Y-108469072D01*
X87945960Y-108470094D01*
X87945790Y-108470577D01*
X88003597Y-108502204D01*
X88037570Y-108564544D01*
X88032446Y-108635356D01*
X87991819Y-108690656D01*
X87947098Y-108725464D01*
X87794674Y-108891041D01*
X87671580Y-109079451D01*
X87581179Y-109285543D01*
X87581176Y-109285550D01*
X87533455Y-109473999D01*
X87533456Y-109474000D01*
X88438884Y-109474000D01*
X88410507Y-109518156D01*
X88370000Y-109656111D01*
X88370000Y-109799889D01*
X88410507Y-109937844D01*
X88438884Y-109982000D01*
X87533455Y-109982000D01*
X87581176Y-110170449D01*
X87581179Y-110170456D01*
X87671580Y-110376548D01*
X87794674Y-110564958D01*
X87947097Y-110730534D01*
X88124698Y-110868767D01*
X88124699Y-110868768D01*
X88233916Y-110927873D01*
X88284307Y-110977886D01*
X88299659Y-111047203D01*
X88275098Y-111113816D01*
X88230830Y-111149923D01*
X88231165Y-111150503D01*
X88227585Y-111152569D01*
X88227210Y-111152876D01*
X88226403Y-111153252D01*
X88042608Y-111281946D01*
X88042602Y-111281951D01*
X87883951Y-111440602D01*
X87883946Y-111440608D01*
X87755254Y-111624400D01*
X87660431Y-111827748D01*
X87660429Y-111827754D01*
X87612100Y-112008119D01*
X87602357Y-112044480D01*
X87582802Y-112268000D01*
X87602357Y-112491520D01*
X87660430Y-112708248D01*
X87755254Y-112911599D01*
X87883949Y-113095395D01*
X88042605Y-113254051D01*
X88042608Y-113254053D01*
X88226401Y-113382746D01*
X88227194Y-113383116D01*
X88227485Y-113383372D01*
X88231165Y-113385497D01*
X88230738Y-113386236D01*
X88280480Y-113430031D01*
X88299943Y-113498308D01*
X88279403Y-113566269D01*
X88233917Y-113608125D01*
X88124704Y-113667228D01*
X88124698Y-113667232D01*
X87947097Y-113805465D01*
X87794674Y-113971041D01*
X87671580Y-114159451D01*
X87581179Y-114365543D01*
X87581176Y-114365550D01*
X87533455Y-114553999D01*
X87533456Y-114554000D01*
X88438884Y-114554000D01*
X88410507Y-114598156D01*
X88370000Y-114736111D01*
X88370000Y-114879889D01*
X88410507Y-115017844D01*
X88438884Y-115062000D01*
X87533455Y-115062000D01*
X23694636Y-115062000D01*
X23695701Y-115058957D01*
X23698440Y-115029750D01*
X23698440Y-112385610D01*
X23695701Y-112356403D01*
X23652660Y-112233398D01*
X23575275Y-112128545D01*
X23470422Y-112051160D01*
X23470419Y-112051159D01*
X23470418Y-112051158D01*
X23347422Y-112008120D01*
X23347418Y-112008119D01*
X23332813Y-112006749D01*
X23318210Y-112005380D01*
X20674070Y-112005380D01*
X20644861Y-112008119D01*
X20644857Y-112008120D01*
X20521861Y-112051158D01*
X20417005Y-112128545D01*
X20339618Y-112233401D01*
X20296580Y-112356397D01*
X20296579Y-112356401D01*
X20293840Y-112385610D01*
X20293840Y-115029749D01*
X16002500Y-115029749D01*
X16002500Y-107755941D01*
X16019614Y-107697654D01*
X16234750Y-107697654D01*
X16249396Y-107720443D01*
X16254251Y-107748030D01*
X16271044Y-108014963D01*
X16271046Y-108014979D01*
X16330934Y-108328916D01*
X16330937Y-108328929D01*
X16429693Y-108632873D01*
X16429698Y-108632886D01*
X16565777Y-108922069D01*
X16565785Y-108922083D01*
X16737029Y-109191919D01*
X16829314Y-109303474D01*
X17553732Y-108579056D01*
X17611662Y-108662982D01*
X17782113Y-108840441D01*
X17912664Y-108938544D01*
X17185613Y-109665595D01*
X17185613Y-109665597D01*
X17432307Y-109844831D01*
X17712382Y-109998804D01*
X18009539Y-110116458D01*
X18009557Y-110116463D01*
X18319095Y-110195939D01*
X18319123Y-110195944D01*
X18636182Y-110235998D01*
X18636201Y-110236000D01*
X18955799Y-110236000D01*
X35312927Y-110236000D01*
X35331994Y-110490426D01*
X35331995Y-110490430D01*
X35388766Y-110739167D01*
X35388768Y-110739172D01*
X35481976Y-110976664D01*
X35481978Y-110976668D01*
X35609547Y-111197624D01*
X35609549Y-111197627D01*
X35609550Y-111197628D01*
X35768627Y-111397105D01*
X35955657Y-111570643D01*
X35955663Y-111570647D01*
X36166461Y-111714367D01*
X36166469Y-111714372D01*
X36396326Y-111825065D01*
X36396344Y-111825072D01*
X36640130Y-111900270D01*
X36640132Y-111900270D01*
X36640141Y-111900273D01*
X36892430Y-111938300D01*
X36892434Y-111938300D01*
X37147566Y-111938300D01*
X37147570Y-111938300D01*
X37399859Y-111900273D01*
X37501555Y-111868904D01*
X37643658Y-111825071D01*
X37643659Y-111825070D01*
X37643664Y-111825069D01*
X37873537Y-111714369D01*
X38084343Y-111570643D01*
X38101637Y-111554597D01*
X39052500Y-111554597D01*
X39059005Y-111615093D01*
X39110055Y-111751964D01*
X39110055Y-111751965D01*
X39197595Y-111868904D01*
X39314534Y-111956444D01*
X39451406Y-112007494D01*
X39511902Y-112013999D01*
X39511915Y-112014000D01*
X40576500Y-112014000D01*
X40576500Y-110958909D01*
X40741435Y-110998000D01*
X40874877Y-110998000D01*
X41007425Y-110982507D01*
X41084500Y-110954454D01*
X41084500Y-112014000D01*
X42149085Y-112014000D01*
X42149097Y-112013999D01*
X42209593Y-112007494D01*
X42346464Y-111956444D01*
X42346465Y-111956444D01*
X42463404Y-111868904D01*
X42550944Y-111751965D01*
X42550944Y-111751964D01*
X42601994Y-111615093D01*
X42608499Y-111554597D01*
X42608500Y-111554585D01*
X42608500Y-110490000D01*
X41549872Y-110490000D01*
X41568434Y-110428000D01*
X47232302Y-110428000D01*
X47251857Y-110651520D01*
X47261800Y-110688627D01*
X47309929Y-110868245D01*
X47309931Y-110868251D01*
X47404754Y-111071599D01*
X47533442Y-111255386D01*
X47533449Y-111255395D01*
X47692105Y-111414051D01*
X47875901Y-111542746D01*
X48079252Y-111637570D01*
X48295980Y-111695643D01*
X48519500Y-111715198D01*
X48743020Y-111695643D01*
X48959748Y-111637570D01*
X49163099Y-111542746D01*
X49346895Y-111414051D01*
X49505551Y-111255395D01*
X49634246Y-111071599D01*
X49634246Y-111071598D01*
X49634248Y-111071596D01*
X49636997Y-111066835D01*
X49639108Y-111068053D01*
X49679164Y-111022509D01*
X49747431Y-111003009D01*
X49815402Y-111023513D01*
X49857346Y-111072646D01*
X49858601Y-111071968D01*
X49861078Y-111076545D01*
X49984174Y-111264958D01*
X50136597Y-111430534D01*
X50314198Y-111568767D01*
X50314199Y-111568768D01*
X50512128Y-111675882D01*
X50512130Y-111675883D01*
X50724983Y-111748955D01*
X50724992Y-111748957D01*
X50805500Y-111762391D01*
X50805500Y-110861674D01*
X50917185Y-110912680D01*
X51023737Y-110928000D01*
X51095263Y-110928000D01*
X51201815Y-110912680D01*
X51313499Y-110861674D01*
X51313499Y-111762391D01*
X51394007Y-111748957D01*
X51394016Y-111748955D01*
X51606869Y-111675883D01*
X51606871Y-111675882D01*
X51804800Y-111568768D01*
X51804801Y-111568767D01*
X51982402Y-111430534D01*
X52134825Y-111264958D01*
X52257921Y-111076545D01*
X52260399Y-111071968D01*
X52261857Y-111072757D01*
X52302758Y-111024066D01*
X52370564Y-111003021D01*
X52438983Y-111021975D01*
X52480072Y-111067949D01*
X52482003Y-111066835D01*
X52484751Y-111071596D01*
X52613446Y-111255391D01*
X52613449Y-111255395D01*
X52772105Y-111414051D01*
X52955901Y-111542746D01*
X53159252Y-111637570D01*
X53375980Y-111695643D01*
X53599500Y-111715198D01*
X53823020Y-111695643D01*
X54039748Y-111637570D01*
X54243099Y-111542746D01*
X54426895Y-111414051D01*
X54585551Y-111255395D01*
X54598862Y-111236385D01*
X54627987Y-111194791D01*
X54683444Y-111150462D01*
X54754063Y-111143153D01*
X54817424Y-111175183D01*
X54853409Y-111236385D01*
X54857200Y-111267061D01*
X54857200Y-111330069D01*
X54859939Y-111359278D01*
X54859940Y-111359282D01*
X54902978Y-111482278D01*
X54902979Y-111482279D01*
X54902980Y-111482282D01*
X54980365Y-111587135D01*
X55085218Y-111664520D01*
X55208223Y-111707561D01*
X55237430Y-111710300D01*
X55237433Y-111710300D01*
X57041567Y-111710300D01*
X57041570Y-111710300D01*
X57070777Y-111707561D01*
X57193782Y-111664520D01*
X57298635Y-111587135D01*
X57376020Y-111482282D01*
X57419061Y-111359277D01*
X57421800Y-111330070D01*
X57421800Y-110428000D01*
X59678302Y-110428000D01*
X59697857Y-110651520D01*
X59707800Y-110688627D01*
X59755929Y-110868245D01*
X59755931Y-110868251D01*
X59850754Y-111071599D01*
X59979442Y-111255386D01*
X59979449Y-111255395D01*
X60138105Y-111414051D01*
X60321901Y-111542746D01*
X60525252Y-111637570D01*
X60741980Y-111695643D01*
X60965500Y-111715198D01*
X61189020Y-111695643D01*
X61405748Y-111637570D01*
X61609099Y-111542746D01*
X61792895Y-111414051D01*
X61951551Y-111255395D01*
X62080246Y-111071599D01*
X62080246Y-111071598D01*
X62080248Y-111071596D01*
X62082997Y-111066835D01*
X62085108Y-111068053D01*
X62125164Y-111022509D01*
X62193431Y-111003009D01*
X62261402Y-111023513D01*
X62303346Y-111072646D01*
X62304601Y-111071968D01*
X62307078Y-111076545D01*
X62430174Y-111264958D01*
X62582597Y-111430534D01*
X62760198Y-111568767D01*
X62760199Y-111568768D01*
X62958128Y-111675882D01*
X62958130Y-111675883D01*
X63170983Y-111748955D01*
X63170992Y-111748957D01*
X63251500Y-111762391D01*
X63251500Y-110861674D01*
X63363185Y-110912680D01*
X63469737Y-110928000D01*
X63541263Y-110928000D01*
X63647815Y-110912680D01*
X63759500Y-110861674D01*
X63759500Y-111762391D01*
X63840007Y-111748957D01*
X63840016Y-111748955D01*
X64052869Y-111675883D01*
X64052871Y-111675882D01*
X64250800Y-111568768D01*
X64250801Y-111568767D01*
X64428402Y-111430534D01*
X64580825Y-111264958D01*
X64703921Y-111076545D01*
X64706399Y-111071968D01*
X64707857Y-111072757D01*
X64748758Y-111024066D01*
X64816564Y-111003021D01*
X64884983Y-111021975D01*
X64926072Y-111067949D01*
X64928003Y-111066835D01*
X64930751Y-111071596D01*
X65059446Y-111255391D01*
X65059449Y-111255395D01*
X65218105Y-111414051D01*
X65401901Y-111542746D01*
X65605252Y-111637570D01*
X65821980Y-111695643D01*
X66045500Y-111715198D01*
X66269020Y-111695643D01*
X66485748Y-111637570D01*
X66689099Y-111542746D01*
X66872895Y-111414051D01*
X67031551Y-111255395D01*
X67044862Y-111236385D01*
X67073987Y-111194791D01*
X67129444Y-111150462D01*
X67200063Y-111143153D01*
X67263424Y-111175183D01*
X67299409Y-111236385D01*
X67303200Y-111267061D01*
X67303200Y-111330069D01*
X67305939Y-111359278D01*
X67305940Y-111359282D01*
X67348978Y-111482278D01*
X67348979Y-111482279D01*
X67348980Y-111482282D01*
X67426365Y-111587135D01*
X67531218Y-111664520D01*
X67654223Y-111707561D01*
X67683430Y-111710300D01*
X67683433Y-111710300D01*
X69487567Y-111710300D01*
X69487570Y-111710300D01*
X69516777Y-111707561D01*
X69639782Y-111664520D01*
X69744635Y-111587135D01*
X69822020Y-111482282D01*
X69865061Y-111359277D01*
X69867800Y-111330070D01*
X69867800Y-110428000D01*
X72124302Y-110428000D01*
X72143857Y-110651520D01*
X72153800Y-110688627D01*
X72201929Y-110868245D01*
X72201931Y-110868251D01*
X72296754Y-111071599D01*
X72425442Y-111255386D01*
X72425449Y-111255395D01*
X72584105Y-111414051D01*
X72767901Y-111542746D01*
X72971252Y-111637570D01*
X73187980Y-111695643D01*
X73411500Y-111715198D01*
X73635020Y-111695643D01*
X73851748Y-111637570D01*
X74055099Y-111542746D01*
X74238895Y-111414051D01*
X74397551Y-111255395D01*
X74526246Y-111071599D01*
X74526246Y-111071598D01*
X74526248Y-111071596D01*
X74528997Y-111066835D01*
X74531108Y-111068053D01*
X74571164Y-111022509D01*
X74639431Y-111003009D01*
X74707402Y-111023513D01*
X74749346Y-111072646D01*
X74750601Y-111071968D01*
X74753078Y-111076545D01*
X74876174Y-111264958D01*
X75028597Y-111430534D01*
X75206198Y-111568767D01*
X75206199Y-111568768D01*
X75404128Y-111675882D01*
X75404130Y-111675883D01*
X75616983Y-111748955D01*
X75616992Y-111748957D01*
X75697500Y-111762391D01*
X75697500Y-110861674D01*
X75809185Y-110912680D01*
X75915737Y-110928000D01*
X75987263Y-110928000D01*
X76093815Y-110912680D01*
X76205500Y-110861674D01*
X76205500Y-111762391D01*
X76286007Y-111748957D01*
X76286016Y-111748955D01*
X76498869Y-111675883D01*
X76498871Y-111675882D01*
X76696800Y-111568768D01*
X76696801Y-111568767D01*
X76874402Y-111430534D01*
X77026825Y-111264958D01*
X77149921Y-111076545D01*
X77152399Y-111071968D01*
X77153857Y-111072757D01*
X77194758Y-111024066D01*
X77262564Y-111003021D01*
X77330983Y-111021975D01*
X77372072Y-111067949D01*
X77374003Y-111066835D01*
X77376751Y-111071596D01*
X77505446Y-111255391D01*
X77505449Y-111255395D01*
X77664105Y-111414051D01*
X77847901Y-111542746D01*
X78051252Y-111637570D01*
X78267980Y-111695643D01*
X78491500Y-111715198D01*
X78715020Y-111695643D01*
X78931748Y-111637570D01*
X79135099Y-111542746D01*
X79318895Y-111414051D01*
X79477551Y-111255395D01*
X79490862Y-111236385D01*
X79519987Y-111194791D01*
X79575444Y-111150462D01*
X79646063Y-111143153D01*
X79709424Y-111175183D01*
X79745409Y-111236385D01*
X79749200Y-111267061D01*
X79749200Y-111330069D01*
X79751939Y-111359278D01*
X79751940Y-111359282D01*
X79794978Y-111482278D01*
X79794979Y-111482279D01*
X79794980Y-111482282D01*
X79872365Y-111587135D01*
X79977218Y-111664520D01*
X80100223Y-111707561D01*
X80129430Y-111710300D01*
X80129433Y-111710300D01*
X81933567Y-111710300D01*
X81933570Y-111710300D01*
X81962777Y-111707561D01*
X82085782Y-111664520D01*
X82190635Y-111587135D01*
X82268020Y-111482282D01*
X82311061Y-111359277D01*
X82313800Y-111330070D01*
X82313800Y-109525930D01*
X82311061Y-109496723D01*
X82268020Y-109373718D01*
X82190635Y-109268865D01*
X82085782Y-109191480D01*
X82085779Y-109191479D01*
X82085778Y-109191478D01*
X81962782Y-109148440D01*
X81962778Y-109148439D01*
X81939669Y-109146272D01*
X81933570Y-109145700D01*
X80129430Y-109145700D01*
X80100221Y-109148439D01*
X80100217Y-109148440D01*
X79977221Y-109191478D01*
X79977218Y-109191479D01*
X79977218Y-109191480D01*
X79872365Y-109268865D01*
X79839605Y-109313254D01*
X79794978Y-109373721D01*
X79751940Y-109496717D01*
X79751939Y-109496721D01*
X79749200Y-109525930D01*
X79749200Y-109588938D01*
X79729198Y-109657059D01*
X79675542Y-109703552D01*
X79605268Y-109713656D01*
X79540688Y-109684162D01*
X79519987Y-109661209D01*
X79477553Y-109600608D01*
X79477551Y-109600605D01*
X79318895Y-109441949D01*
X79295353Y-109425465D01*
X79135099Y-109313254D01*
X78931751Y-109218431D01*
X78931745Y-109218429D01*
X78831163Y-109191478D01*
X78715020Y-109160357D01*
X78491500Y-109140802D01*
X78491499Y-109140802D01*
X78267980Y-109160357D01*
X78051254Y-109218429D01*
X78051248Y-109218431D01*
X77847900Y-109313254D01*
X77664108Y-109441946D01*
X77664102Y-109441951D01*
X77505451Y-109600602D01*
X77505446Y-109600608D01*
X77376751Y-109784403D01*
X77374003Y-109789165D01*
X77371922Y-109787963D01*
X77331680Y-109833588D01*
X77263385Y-109852988D01*
X77195444Y-109832386D01*
X77153691Y-109783332D01*
X77152399Y-109784032D01*
X77149921Y-109779454D01*
X77026825Y-109591041D01*
X76874402Y-109425465D01*
X76696801Y-109287232D01*
X76696800Y-109287231D01*
X76498871Y-109180117D01*
X76498869Y-109180116D01*
X76286012Y-109107043D01*
X76286001Y-109107040D01*
X76205500Y-109093606D01*
X76205500Y-109994325D01*
X76093815Y-109943320D01*
X75987263Y-109928000D01*
X75915737Y-109928000D01*
X75809185Y-109943320D01*
X75697500Y-109994325D01*
X75697500Y-109093607D01*
X75697499Y-109093606D01*
X75616998Y-109107040D01*
X75616987Y-109107043D01*
X75404130Y-109180116D01*
X75404128Y-109180117D01*
X75206199Y-109287231D01*
X75206198Y-109287232D01*
X75028597Y-109425465D01*
X74876174Y-109591041D01*
X74753078Y-109779454D01*
X74750601Y-109784032D01*
X74749151Y-109783247D01*
X74708198Y-109831962D01*
X74640383Y-109852979D01*
X74571972Y-109833996D01*
X74530937Y-109788044D01*
X74528997Y-109789165D01*
X74526248Y-109784403D01*
X74397553Y-109600608D01*
X74397551Y-109600605D01*
X74238895Y-109441949D01*
X74215353Y-109425465D01*
X74055099Y-109313254D01*
X73851751Y-109218431D01*
X73851745Y-109218429D01*
X73751163Y-109191478D01*
X73635020Y-109160357D01*
X73411500Y-109140802D01*
X73187980Y-109160357D01*
X72971254Y-109218429D01*
X72971248Y-109218431D01*
X72767900Y-109313254D01*
X72584108Y-109441946D01*
X72584102Y-109441951D01*
X72425451Y-109600602D01*
X72425446Y-109600608D01*
X72296754Y-109784400D01*
X72201931Y-109987748D01*
X72201929Y-109987754D01*
X72171108Y-110102779D01*
X72143857Y-110204480D01*
X72124302Y-110428000D01*
X69867800Y-110428000D01*
X69867800Y-109525930D01*
X69865061Y-109496723D01*
X69822020Y-109373718D01*
X69744635Y-109268865D01*
X69639782Y-109191480D01*
X69639779Y-109191479D01*
X69639778Y-109191478D01*
X69516782Y-109148440D01*
X69516778Y-109148439D01*
X69493669Y-109146272D01*
X69487570Y-109145700D01*
X67683430Y-109145700D01*
X67654221Y-109148439D01*
X67654217Y-109148440D01*
X67531221Y-109191478D01*
X67531218Y-109191479D01*
X67531218Y-109191480D01*
X67426365Y-109268865D01*
X67393605Y-109313254D01*
X67348978Y-109373721D01*
X67305940Y-109496717D01*
X67305939Y-109496721D01*
X67303200Y-109525930D01*
X67303200Y-109588938D01*
X67283198Y-109657059D01*
X67229542Y-109703552D01*
X67159268Y-109713656D01*
X67094688Y-109684162D01*
X67073987Y-109661209D01*
X67031553Y-109600608D01*
X67031551Y-109600605D01*
X66872895Y-109441949D01*
X66849353Y-109425465D01*
X66689099Y-109313254D01*
X66485751Y-109218431D01*
X66485745Y-109218429D01*
X66385163Y-109191478D01*
X66269020Y-109160357D01*
X66045500Y-109140802D01*
X66045499Y-109140802D01*
X65821980Y-109160357D01*
X65605254Y-109218429D01*
X65605248Y-109218431D01*
X65401900Y-109313254D01*
X65218108Y-109441946D01*
X65218102Y-109441951D01*
X65059451Y-109600602D01*
X65059446Y-109600608D01*
X64930751Y-109784403D01*
X64928003Y-109789165D01*
X64925922Y-109787963D01*
X64885680Y-109833588D01*
X64817385Y-109852988D01*
X64749444Y-109832386D01*
X64707691Y-109783332D01*
X64706399Y-109784032D01*
X64703921Y-109779454D01*
X64580825Y-109591041D01*
X64428402Y-109425465D01*
X64250801Y-109287232D01*
X64250800Y-109287231D01*
X64052871Y-109180117D01*
X64052869Y-109180116D01*
X63840012Y-109107043D01*
X63840001Y-109107040D01*
X63759500Y-109093606D01*
X63759500Y-109994325D01*
X63647815Y-109943320D01*
X63541263Y-109928000D01*
X63469737Y-109928000D01*
X63363185Y-109943320D01*
X63251500Y-109994325D01*
X63251500Y-109093606D01*
X63251499Y-109093606D01*
X63170998Y-109107040D01*
X63170987Y-109107043D01*
X62958130Y-109180116D01*
X62958128Y-109180117D01*
X62760199Y-109287231D01*
X62760198Y-109287232D01*
X62582597Y-109425465D01*
X62430174Y-109591041D01*
X62307078Y-109779454D01*
X62304601Y-109784032D01*
X62303151Y-109783247D01*
X62262198Y-109831962D01*
X62194383Y-109852979D01*
X62125972Y-109833996D01*
X62084937Y-109788044D01*
X62082997Y-109789165D01*
X62080248Y-109784403D01*
X61951553Y-109600608D01*
X61951551Y-109600605D01*
X61792895Y-109441949D01*
X61769353Y-109425465D01*
X61609099Y-109313254D01*
X61405751Y-109218431D01*
X61405745Y-109218429D01*
X61305163Y-109191478D01*
X61189020Y-109160357D01*
X60965500Y-109140802D01*
X60741980Y-109160357D01*
X60525254Y-109218429D01*
X60525248Y-109218431D01*
X60321900Y-109313254D01*
X60138108Y-109441946D01*
X60138102Y-109441951D01*
X59979451Y-109600602D01*
X59979446Y-109600608D01*
X59850754Y-109784400D01*
X59755931Y-109987748D01*
X59755929Y-109987754D01*
X59725108Y-110102779D01*
X59697857Y-110204480D01*
X59678302Y-110428000D01*
X57421800Y-110428000D01*
X57421800Y-109525930D01*
X57419061Y-109496723D01*
X57376020Y-109373718D01*
X57298635Y-109268865D01*
X57193782Y-109191480D01*
X57193779Y-109191479D01*
X57193778Y-109191478D01*
X57070782Y-109148440D01*
X57070778Y-109148439D01*
X57047669Y-109146272D01*
X57041570Y-109145700D01*
X55237430Y-109145700D01*
X55208221Y-109148439D01*
X55208217Y-109148440D01*
X55085221Y-109191478D01*
X55085218Y-109191479D01*
X55085218Y-109191480D01*
X54980365Y-109268865D01*
X54947605Y-109313254D01*
X54902978Y-109373721D01*
X54859940Y-109496717D01*
X54859939Y-109496721D01*
X54857200Y-109525930D01*
X54857199Y-109525934D01*
X54857199Y-109588940D01*
X54837196Y-109657060D01*
X54783540Y-109703552D01*
X54713265Y-109713655D01*
X54648685Y-109684161D01*
X54627986Y-109661209D01*
X54585551Y-109600605D01*
X54426895Y-109441949D01*
X54403353Y-109425465D01*
X54243099Y-109313254D01*
X54039751Y-109218431D01*
X54039745Y-109218429D01*
X53939163Y-109191478D01*
X53823020Y-109160357D01*
X53599500Y-109140802D01*
X53599499Y-109140802D01*
X53375980Y-109160357D01*
X53159254Y-109218429D01*
X53159248Y-109218431D01*
X52955900Y-109313254D01*
X52772108Y-109441946D01*
X52772102Y-109441951D01*
X52613451Y-109600602D01*
X52613446Y-109600608D01*
X52484751Y-109784403D01*
X52482003Y-109789165D01*
X52479922Y-109787963D01*
X52439680Y-109833588D01*
X52371385Y-109852988D01*
X52303444Y-109832386D01*
X52261691Y-109783332D01*
X52260399Y-109784032D01*
X52257921Y-109779454D01*
X52134825Y-109591041D01*
X51982402Y-109425465D01*
X51804801Y-109287232D01*
X51804800Y-109287231D01*
X51606871Y-109180117D01*
X51606869Y-109180116D01*
X51394012Y-109107043D01*
X51394001Y-109107040D01*
X51313499Y-109093606D01*
X51313499Y-109994325D01*
X51201815Y-109943320D01*
X51095263Y-109928000D01*
X51023737Y-109928000D01*
X50917185Y-109943320D01*
X50805500Y-109994325D01*
X50805500Y-109093607D01*
X50805499Y-109093606D01*
X50724998Y-109107040D01*
X50724987Y-109107043D01*
X50512130Y-109180116D01*
X50512128Y-109180117D01*
X50314199Y-109287231D01*
X50314198Y-109287232D01*
X50136597Y-109425465D01*
X49984174Y-109591041D01*
X49861078Y-109779454D01*
X49858601Y-109784032D01*
X49857151Y-109783247D01*
X49816198Y-109831962D01*
X49748383Y-109852979D01*
X49679972Y-109833996D01*
X49638937Y-109788044D01*
X49636997Y-109789165D01*
X49634248Y-109784403D01*
X49505553Y-109600608D01*
X49505551Y-109600605D01*
X49346895Y-109441949D01*
X49323353Y-109425465D01*
X49163099Y-109313254D01*
X48959751Y-109218431D01*
X48959745Y-109218429D01*
X48859163Y-109191478D01*
X48743020Y-109160357D01*
X48519500Y-109140802D01*
X48519499Y-109140802D01*
X48295980Y-109160357D01*
X48079254Y-109218429D01*
X48079248Y-109218431D01*
X47875900Y-109313254D01*
X47692108Y-109441946D01*
X47692102Y-109441951D01*
X47533451Y-109600602D01*
X47533446Y-109600608D01*
X47404754Y-109784400D01*
X47309931Y-109987748D01*
X47309929Y-109987754D01*
X47279108Y-110102779D01*
X47251857Y-110204480D01*
X47232302Y-110428000D01*
X41568434Y-110428000D01*
X41586032Y-110369221D01*
X41596389Y-110191392D01*
X41565457Y-110015968D01*
X41550804Y-109982000D01*
X42608500Y-109982000D01*
X42608500Y-108917414D01*
X42608499Y-108917402D01*
X42601994Y-108856906D01*
X42550944Y-108720035D01*
X42550944Y-108720034D01*
X42463404Y-108603095D01*
X42346465Y-108515555D01*
X42209593Y-108464505D01*
X42149097Y-108458000D01*
X41084500Y-108458000D01*
X41084500Y-109513090D01*
X40919565Y-109474000D01*
X40786123Y-109474000D01*
X40653575Y-109489493D01*
X40576500Y-109517545D01*
X40576500Y-108458000D01*
X39511902Y-108458000D01*
X39451406Y-108464505D01*
X39314535Y-108515555D01*
X39314534Y-108515555D01*
X39197595Y-108603095D01*
X39110055Y-108720034D01*
X39110055Y-108720035D01*
X39059005Y-108856906D01*
X39052500Y-108917402D01*
X39052500Y-109982000D01*
X40111128Y-109982000D01*
X40074968Y-110102779D01*
X40064611Y-110280608D01*
X40095543Y-110456032D01*
X40110196Y-110490000D01*
X39052500Y-110490000D01*
X39052500Y-111554597D01*
X38101637Y-111554597D01*
X38271373Y-111397105D01*
X38430450Y-111197628D01*
X38558020Y-110976671D01*
X38560748Y-110969722D01*
X38618057Y-110823699D01*
X38651233Y-110739169D01*
X38708006Y-110490426D01*
X38727073Y-110236000D01*
X38708006Y-109981574D01*
X38651233Y-109732831D01*
X38599337Y-109600602D01*
X38558023Y-109495335D01*
X38558021Y-109495331D01*
X38554650Y-109489493D01*
X38430450Y-109274372D01*
X38271373Y-109074895D01*
X38084343Y-108901357D01*
X38069212Y-108891041D01*
X37873538Y-108757632D01*
X37873537Y-108757631D01*
X37873534Y-108757630D01*
X37873532Y-108757628D01*
X37873531Y-108757627D01*
X37643665Y-108646931D01*
X37643658Y-108646928D01*
X37399869Y-108571729D01*
X37399861Y-108571727D01*
X37399859Y-108571727D01*
X37147570Y-108533700D01*
X36892430Y-108533700D01*
X36640141Y-108571727D01*
X36640139Y-108571727D01*
X36640130Y-108571729D01*
X36396344Y-108646927D01*
X36396326Y-108646934D01*
X36166469Y-108757627D01*
X36166461Y-108757632D01*
X35955663Y-108901352D01*
X35955658Y-108901356D01*
X35768628Y-109074894D01*
X35609547Y-109274375D01*
X35481978Y-109495331D01*
X35481976Y-109495335D01*
X35388768Y-109732827D01*
X35388766Y-109732832D01*
X35331995Y-109981569D01*
X35331994Y-109981574D01*
X35312927Y-110236000D01*
X18955799Y-110236000D01*
X18955817Y-110235998D01*
X19272876Y-110195944D01*
X19272904Y-110195939D01*
X19582442Y-110116463D01*
X19582460Y-110116458D01*
X19879617Y-109998804D01*
X20159692Y-109844831D01*
X20406385Y-109665597D01*
X20406385Y-109665595D01*
X19680568Y-108939777D01*
X19714510Y-108918314D01*
X19898688Y-108755146D01*
X20040575Y-108581365D01*
X20762684Y-109303474D01*
X20762685Y-109303473D01*
X20854963Y-109191930D01*
X21026214Y-108922082D01*
X21026222Y-108922069D01*
X21162301Y-108632886D01*
X21162306Y-108632873D01*
X21261062Y-108328929D01*
X21261065Y-108328916D01*
X21320953Y-108014979D01*
X21320955Y-108014963D01*
X21341022Y-107696006D01*
X21341022Y-107695993D01*
X21320955Y-107377036D01*
X21320953Y-107377020D01*
X21261065Y-107063083D01*
X21261062Y-107063070D01*
X21162306Y-106759126D01*
X21162301Y-106759113D01*
X21026222Y-106469930D01*
X21026214Y-106469916D01*
X20854970Y-106200080D01*
X20762684Y-106088524D01*
X20038266Y-106812941D01*
X19980338Y-106729018D01*
X19809887Y-106551559D01*
X19679334Y-106453454D01*
X20406385Y-105726403D01*
X20406385Y-105726402D01*
X20159692Y-105547168D01*
X19879617Y-105393195D01*
X19582460Y-105275541D01*
X19582442Y-105275536D01*
X19272904Y-105196060D01*
X19272876Y-105196055D01*
X18955817Y-105156001D01*
X18955799Y-105156000D01*
X18636201Y-105156000D01*
X18636182Y-105156001D01*
X18319123Y-105196055D01*
X18319095Y-105196060D01*
X18009557Y-105275536D01*
X18009539Y-105275541D01*
X17712382Y-105393195D01*
X17432306Y-105547168D01*
X17185613Y-105726401D01*
X17185613Y-105726403D01*
X17911432Y-106452222D01*
X17877490Y-106473686D01*
X17693312Y-106636854D01*
X17551424Y-106810633D01*
X16829314Y-106088524D01*
X16737033Y-106200075D01*
X16737030Y-106200078D01*
X16565785Y-106469917D01*
X16565777Y-106469930D01*
X16429698Y-106759113D01*
X16429693Y-106759126D01*
X16330937Y-107063070D01*
X16330934Y-107063083D01*
X16271046Y-107377020D01*
X16271044Y-107377036D01*
X16254251Y-107643969D01*
X16234750Y-107697654D01*
X16019614Y-107697654D01*
X16021274Y-107692000D01*
X16005614Y-107663895D01*
X16002500Y-107636058D01*
X16002500Y-105028500D01*
X16022502Y-104960379D01*
X16076158Y-104913886D01*
X16128500Y-104902500D01*
X113919500Y-104902500D01*
X113987621Y-104922502D01*
G37*
G04 #@! TD.AperFunction*
M02*
