M48
; DRILL file {KiCad 7.0.5-7.0.5~ubuntu20.04.1} date Sat 15 Jul 2023 12:40:04 PM CEST
; FORMAT={-:-/ absolute / metric / decimal}
; #@! TF.CreationDate,2023-07-15T12:40:04+02:00
; #@! TF.GenerationSoftware,Kicad,Pcbnew,7.0.5-7.0.5~ubuntu20.04.1
; #@! TF.FileFunction,Plated,1,2,PTH
FMAT,2
METRIC
; #@! TA.AperFunction,Plated,PTH,ComponentDrill
T1C0.762
; #@! TA.AperFunction,Plated,PTH,ComponentDrill
T2C0.800
; #@! TA.AperFunction,Plated,PTH,ComponentDrill
T3C0.950
; #@! TA.AperFunction,Plated,PTH,ComponentDrill
T4C1.000
; #@! TA.AperFunction,Plated,PTH,ComponentDrill
T5C1.016
; #@! TA.AperFunction,Plated,PTH,ComponentDrill
T6C1.199
; #@! TA.AperFunction,Plated,PTH,ComponentDrill
T7C1.524
; #@! TA.AperFunction,Plated,PTH,ComponentDrill
T8C3.048
%
G90
G05
T1
X48.011Y-134.362
X48.011Y-141.982
X50.551Y-134.362
X50.551Y-141.982
X56.139Y-134.362
X56.139Y-141.982
X58.679Y-134.362
X58.679Y-141.982
X63.974Y-134.362
X63.974Y-141.982
X66.514Y-134.362
X66.514Y-141.982
T2
X21.082Y-139.954
X28.702Y-139.954
T3
X109.22Y-108.458
X109.22Y-110.958
X109.22Y-113.458
T4
X48.52Y-110.428
X51.059Y-110.428
X53.599Y-110.428
X56.139Y-110.428
X60.965Y-110.428
X63.505Y-110.428
X66.046Y-110.428
X68.585Y-110.428
X73.412Y-110.428
X75.224Y-133.858
X75.951Y-110.428
X78.492Y-110.428
X80.224Y-133.858
X81.031Y-110.428
X83.86Y-133.858
X88.86Y-133.858
X88.87Y-107.188
X88.87Y-109.728
X88.87Y-112.268
X88.87Y-114.808
X88.87Y-117.348
X93.462Y-135.89
X96.002Y-135.89
X98.542Y-135.89
X101.082Y-135.89
X108.204Y-129.54
X109.22Y-119.634
X109.22Y-122.134
X110.704Y-129.54
T5
X35.306Y-138.938
X37.846Y-138.938
X71.628Y-140.716
X74.168Y-140.716
X76.708Y-140.716
X79.248Y-140.716
X81.788Y-140.716
X84.328Y-140.716
X86.868Y-140.716
X89.408Y-140.716
T6
X21.996Y-113.708
X21.996Y-118.706
X21.996Y-123.708
X21.996Y-129.581
X21.996Y-134.579
T7
X33.21Y-130.158
X37.02Y-110.236
X37.02Y-130.158
X40.831Y-110.236
T8
X18.796Y-107.696
X18.796Y-144.018
X106.426Y-137.16
T0
M30
