G04 #@! TF.GenerationSoftware,KiCad,Pcbnew,7.0.5-7.0.5~ubuntu20.04.1*
G04 #@! TF.CreationDate,2023-07-15T12:39:55+02:00*
G04 #@! TF.ProjectId,omega-dca,6f6d6567-612d-4646-9361-2e6b69636164,rev?*
G04 #@! TF.SameCoordinates,Original*
G04 #@! TF.FileFunction,Copper,L1,Top*
G04 #@! TF.FilePolarity,Positive*
%FSLAX46Y46*%
G04 Gerber Fmt 4.6, Leading zero omitted, Abs format (unit mm)*
G04 Created by KiCad (PCBNEW 7.0.5-7.0.5~ubuntu20.04.1) date 2023-07-15 12:39:55*
%MOMM*%
%LPD*%
G01*
G04 APERTURE LIST*
G04 Aperture macros list*
%AMRoundRect*
0 Rectangle with rounded corners*
0 $1 Rounding radius*
0 $2 $3 $4 $5 $6 $7 $8 $9 X,Y pos of 4 corners*
0 Add a 4 corners polygon primitive as box body*
4,1,4,$2,$3,$4,$5,$6,$7,$8,$9,$2,$3,0*
0 Add four circle primitives for the rounded corners*
1,1,$1+$1,$2,$3*
1,1,$1+$1,$4,$5*
1,1,$1+$1,$6,$7*
1,1,$1+$1,$8,$9*
0 Add four rect primitives between the rounded corners*
20,1,$1+$1,$2,$3,$4,$5,0*
20,1,$1+$1,$4,$5,$6,$7,0*
20,1,$1+$1,$6,$7,$8,$9,0*
20,1,$1+$1,$8,$9,$2,$3,0*%
G04 Aperture macros list end*
G04 #@! TA.AperFunction,ComponentPad*
%ADD10R,1.524000X1.524000*%
G04 #@! TD*
G04 #@! TA.AperFunction,ComponentPad*
%ADD11C,1.524000*%
G04 #@! TD*
G04 #@! TA.AperFunction,ComponentPad*
%ADD12C,2.000000*%
G04 #@! TD*
G04 #@! TA.AperFunction,ComponentPad*
%ADD13R,1.700000X1.700000*%
G04 #@! TD*
G04 #@! TA.AperFunction,ComponentPad*
%ADD14O,1.700000X1.700000*%
G04 #@! TD*
G04 #@! TA.AperFunction,ComponentPad*
%ADD15RoundRect,0.250000X-0.750000X0.600000X-0.750000X-0.600000X0.750000X-0.600000X0.750000X0.600000X0*%
G04 #@! TD*
G04 #@! TA.AperFunction,ComponentPad*
%ADD16O,2.000000X1.700000*%
G04 #@! TD*
G04 #@! TA.AperFunction,ComponentPad*
%ADD17R,2.540000X2.540000*%
G04 #@! TD*
G04 #@! TA.AperFunction,ComponentPad*
%ADD18C,2.540000*%
G04 #@! TD*
G04 #@! TA.AperFunction,ComponentPad*
%ADD19C,1.600000*%
G04 #@! TD*
G04 #@! TA.AperFunction,ComponentPad*
%ADD20O,1.600000X1.600000*%
G04 #@! TD*
G04 #@! TA.AperFunction,ComponentPad*
%ADD21RoundRect,0.250000X-0.725000X0.600000X-0.725000X-0.600000X0.725000X-0.600000X0.725000X0.600000X0*%
G04 #@! TD*
G04 #@! TA.AperFunction,ComponentPad*
%ADD22O,1.950000X1.700000*%
G04 #@! TD*
G04 #@! TA.AperFunction,ComponentPad*
%ADD23C,4.064000*%
G04 #@! TD*
G04 #@! TA.AperFunction,ComponentPad*
%ADD24RoundRect,0.250000X-0.600000X-0.750000X0.600000X-0.750000X0.600000X0.750000X-0.600000X0.750000X0*%
G04 #@! TD*
G04 #@! TA.AperFunction,ComponentPad*
%ADD25O,1.700000X2.000000*%
G04 #@! TD*
G04 #@! TA.AperFunction,Conductor*
%ADD26C,1.000000*%
G04 #@! TD*
G04 #@! TA.AperFunction,Conductor*
%ADD27C,2.000000*%
G04 #@! TD*
G04 APERTURE END LIST*
D10*
X71628000Y-140716000D03*
D11*
X74168000Y-140716000D03*
X76708000Y-140716000D03*
X79248000Y-140716000D03*
X81788000Y-140716000D03*
X84328000Y-140716000D03*
X86868000Y-140716000D03*
X89408000Y-140716000D03*
D12*
X88860000Y-133858000D03*
X83860000Y-133858000D03*
D11*
X35306000Y-138938000D03*
X37846000Y-138938000D03*
D13*
X56139500Y-110428000D03*
D14*
X51059500Y-110428000D03*
X53599500Y-110428000D03*
X48519500Y-110428000D03*
D15*
X109220000Y-119634000D03*
D16*
X109220000Y-122134000D03*
D17*
X21996140Y-113707680D03*
D18*
X21996140Y-118706400D03*
X21996140Y-123707660D03*
D19*
X28702000Y-139954000D03*
D20*
X21082000Y-139954000D03*
D13*
X88870000Y-107188000D03*
D14*
X88870000Y-109728000D03*
X88870000Y-112268000D03*
X88870000Y-114808000D03*
X88870000Y-117348000D03*
D21*
X109220000Y-108458000D03*
D22*
X109220000Y-110958000D03*
X109220000Y-113458000D03*
D13*
X81031500Y-110428000D03*
D14*
X75951500Y-110428000D03*
X78491500Y-110428000D03*
X73411500Y-110428000D03*
D23*
X18796000Y-107696000D03*
D11*
X66514500Y-134362500D03*
X63974500Y-134362500D03*
X66514500Y-141982500D03*
X63974500Y-141982500D03*
X58679000Y-134362500D03*
X56139000Y-134362500D03*
X58679000Y-141982500D03*
X56139000Y-141982500D03*
D13*
X101082000Y-135890000D03*
D14*
X98542000Y-135890000D03*
X96002000Y-135890000D03*
X93462000Y-135890000D03*
D12*
X80224000Y-133858000D03*
X75224000Y-133858000D03*
D11*
X50551000Y-134362500D03*
X48011000Y-134362500D03*
X50551000Y-141982500D03*
X48011000Y-141982500D03*
D17*
X21996140Y-129580640D03*
D18*
X21996140Y-134579360D03*
D23*
X106426000Y-137160000D03*
D13*
X68585500Y-110428000D03*
D14*
X63505500Y-110428000D03*
X66045500Y-110428000D03*
X60965500Y-110428000D03*
D23*
X18796000Y-144018000D03*
D24*
X108204000Y-129540000D03*
D25*
X110704000Y-129540000D03*
D17*
X40830500Y-110236000D03*
D18*
X37020000Y-110236000D03*
D17*
X37020500Y-130157787D03*
D18*
X33210500Y-130157787D03*
D26*
X95250000Y-108458000D02*
X91440000Y-112268000D01*
X80224000Y-119166000D02*
X80224000Y-133858000D01*
X87122000Y-112268000D02*
X80224000Y-119166000D01*
X88870000Y-112268000D02*
X87122000Y-112268000D01*
X109220000Y-108458000D02*
X95250000Y-108458000D01*
X88870000Y-112268000D02*
X91440000Y-112268000D01*
X83566000Y-135890000D02*
X77256000Y-135890000D01*
X77256000Y-135890000D02*
X75224000Y-133858000D01*
X86868000Y-139192000D02*
X83566000Y-135890000D01*
X86868000Y-140716000D02*
X86868000Y-139192000D01*
X88870000Y-117348000D02*
X91694000Y-117348000D01*
X88870000Y-117348000D02*
X88870000Y-133848000D01*
X88870000Y-133848000D02*
X88860000Y-133858000D01*
X109220000Y-113458000D02*
X95584000Y-113458000D01*
X95584000Y-113458000D02*
X91694000Y-117348000D01*
X83860000Y-133858000D02*
X89408000Y-139406000D01*
X89408000Y-139406000D02*
X89408000Y-140716000D01*
D27*
X63974500Y-141982500D02*
X63974500Y-143730500D01*
X63974500Y-143730500D02*
X65024000Y-144780000D01*
X110744000Y-143256000D02*
X110704000Y-143216000D01*
X65024000Y-144780000D02*
X109220000Y-144780000D01*
X65024000Y-144780000D02*
X43688000Y-144780000D01*
X110704000Y-123618000D02*
X109220000Y-122134000D01*
X109220000Y-144780000D02*
X110744000Y-143256000D01*
X110704000Y-129540000D02*
X110704000Y-123618000D01*
X43688000Y-144780000D02*
X37846000Y-138938000D01*
X110704000Y-143216000D02*
X110704000Y-129540000D01*
X81788000Y-140716000D02*
X79248000Y-140716000D01*
X88510862Y-107188000D02*
X71374000Y-124324862D01*
X48011000Y-139187000D02*
X49276000Y-137922000D01*
X81788000Y-140716000D02*
X84328000Y-140716000D01*
X48011000Y-141982500D02*
X48011000Y-139187000D01*
X88870000Y-107188000D02*
X88510862Y-107188000D01*
X81788000Y-140716000D02*
X78994000Y-137922000D01*
X71374000Y-137922000D02*
X49276000Y-137922000D01*
X71374000Y-124324862D02*
X71374000Y-137922000D01*
X78994000Y-137922000D02*
X71374000Y-137922000D01*
X76708000Y-107188000D02*
X78491500Y-108971500D01*
X33210500Y-130157787D02*
X33210500Y-124523500D01*
X78491500Y-108971500D02*
X78491500Y-110428000D01*
X66045500Y-107447500D02*
X65786000Y-107188000D01*
X53599500Y-110428000D02*
X53599500Y-107193500D01*
X33210500Y-124523500D02*
X44958000Y-112776000D01*
X53594000Y-107188000D02*
X65786000Y-107188000D01*
X44958000Y-112776000D02*
X44958000Y-107188000D01*
X44958000Y-107188000D02*
X53594000Y-107188000D01*
X66045500Y-110428000D02*
X66045500Y-107447500D01*
X65786000Y-107188000D02*
X76708000Y-107188000D01*
X53599500Y-107193500D02*
X53594000Y-107188000D01*
X28702000Y-130413520D02*
X28702000Y-139954000D01*
X21996140Y-123707660D02*
X28702000Y-130413520D01*
X21996140Y-118706400D02*
X28549600Y-118706400D01*
X28549600Y-118706400D02*
X37020000Y-110236000D01*
X18542000Y-126126500D02*
X21996140Y-129580640D01*
X18542000Y-115062000D02*
X18542000Y-126126500D01*
X21996140Y-113707680D02*
X19896320Y-113707680D01*
X19896320Y-113707680D02*
X18542000Y-115062000D01*
X48011000Y-127513000D02*
X48011000Y-134362500D01*
X48519500Y-126994500D02*
X48006000Y-127508000D01*
X48519500Y-110428000D02*
X48519500Y-126994500D01*
X48006000Y-127508000D02*
X48011000Y-127513000D01*
X56134000Y-127508000D02*
X56139000Y-127513000D01*
X56139000Y-127513000D02*
X56139000Y-134362500D01*
X60965500Y-122676500D02*
X56134000Y-127508000D01*
X60965500Y-110428000D02*
X60965500Y-122676500D01*
X73411500Y-117850500D02*
X63974500Y-127287500D01*
X73411500Y-110428000D02*
X73411500Y-117850500D01*
X63974500Y-127287500D02*
X63974500Y-134362500D01*
M02*
